P3
80 53
255
8 13 15  11 15 18  13 17 20  12 18 21  13 17 20  13 16 19
14 16 19  12 15 18  14 16 18  15 18 20  16 19 20  18 21 23
23 28 30  39 47 53  67 80 93  71 87 98  74 90 101  72 89 99
71 89 100  74 89 100  71 86 98  76 91 101  82 99 110  83 99 112
82 101 112  87 102 115  91 109 119  91 108 119  90 106 118  91 109 120
90 108 116  91 108 119  92 108 119  93 110 120  93 111 121  96 112 125
97 113 125  97 113 125  98 114 125  98 114 126  104 118 131  101 117 130
106 121 132  106 121 133  104 121 131  104 124 134  110 127 138  106 124 136
109 127 138  105 120 135  103 122 133  107 124 134  106 122 134  108 125 136
106 124 135  106 122 136  114 130 140  108 122 135  111 126 137  111 125 136
106 125 138  109 124 137  108 124 133  109 124 135  110 125 137  106 122 133
110 126 137  107 124 135  107 124 134  106 120 130  106 123 133  106 122 132
101 117 127  106 123 131  101 118 127  101 118 128  100 117 128  102 118 127
100 116 126  98 114 123
9 14 15  8 11 12  7 10 12  8 11 13  8 12 14  11 15 18
13 17 20  13 18 20  8 9 11  7 8 10  8 9 11  11 12 14
14 17 19  24 31 34  40 49 56  48 61 70  59 71 80  66 80 90
71 88 97  74 91 102  82 98 109  83 102 111  91 106 118  91 109 121
89 107 118  92 109 121  95 110 122  94 111 122  94 111 122  92 110 122
92 110 122  94 111 122  97 114 127  100 114 127  96 114 125  99 115 128
99 116 129  100 117 129  101 119 129  102 119 132  102 120 131  106 121 134
107 124 138  105 124 134  109 127 138  106 124 136  110 127 140  110 126 139
106 124 136  110 125 138  111 127 141  107 124 136  114 129 142  113 129 140
111 126 137  108 125 137  109 125 136  111 125 138  113 128 139  107 125 136
107 122 133  108 125 136  109 126 136  108 126 137  108 126 137  106 123 134
105 121 133  105 122 132  107 122 133  106 124 133  105 121 131  103 120 130
108 124 135  102 120 129  97 116 127  104 121 128  102 118 128  99 115 126
97 116 123  98 115 124
13 17 19  15 20 22  12 16 18  9 12 14  7 9 11  6 8 9
6 7 9  5 7 9  5 6 8  4 5 7  3 4 5  4 4 5
4 4 6  4 5 7  6 8 9  10 12 14  15 18 20  21 26 30
28 35 39  42 52 57  51 63 71  66 79 89  77 92 103  84 101 112
90 108 119  95 113 126  99 116 129  96 113 126  99 114 127  100 116 129
101 118 129  100 116 129  99 115 129  102 117 129  100 116 129  99 117 129
104 120 134  101 117 129  103 119 133  106 123 135  106 124 136  110 125 137
109 126 137  111 128 140  113 130 142  112 130 142  114 130 142  108 123 137
110 126 137  110 126 137  111 127 139  108 125 138  107 124 136  108 124 136
112 126 139  108 122 133  112 129 139  112 127 139  107 123 134  108 124 136
109 125 137  112 126 137  108 124 133  111 126 138  111 126 138  106 119 131
106 122 133  109 123 135  108 123 133  104 121 131  108 122 131  107 123 134
105 121 131  100 116 127  100 117 127  104 120 129  101 117 125  98 115 123
97 114 122  97 114 123
8 10 11  8 10 12  9 11 13  9 11 13  7 8 10  7 8 9
6 7 9  5 6 8  5 6 8  5 6 8  4 5 7  4 4 6
4 4 6  4 4 5  3 3 5  3 3 5  3 4 6  4 5 7
6 7 8  7 9 11  9 12 13  15 17 19  21 26 28  30 39 42
44 55 61  59 71 79  70 85 96  82 97 108  91 108 119  96 112 126
100 118 131  103 118 129  105 121 135  104 119 135  104 120 133  102 120 132
108 123 136  106 123 135  110 126 139  109 126 137  108 124 137  113 129 141
109 127 140  109 125 136  113 130 142  113 128 140  115 130 143  106 123 135
110 126 137  107 124 137  110 127 139  109 127 138  113 130 141  110 125 139
109 125 135  108 125 137  107 123 135  110 125 137  106 122 134  107 124 134
106 120 130  109 124 135  109 125 136  111 125 137  107 122 134  107 123 134
105 119 131  105 120 131  105 119 130  105 120 129  103 120 131  101 117 128
101 116 127  101 116 127  101 118 128  98 114 125  100 117 125  102 117 126
98 113 121  100 114 125
9 11 12  8 11 12  8 10 11  7 8 10  6 8 9  7 8 10
7 8 10  7 8 10  7 8 10  6 8 9  6 7 9  5 6 8
5 6 8  5 6 8  5 5 7  4 5 7  4 4 6  4 4 6
3 4 6  3 4 6  3 4 6  3 4 6  4 5 7  5 6 8
7 8 10  8 12 13  13 17 18  20 25 27  31 38 41  40 52 57
58 70 75  71 86 95  82 97 110  93 107 120  101 117 131  105 121 135
108 124 137  109 126 140  112 129 141  113 130 142  112 128 141  113 129 142
112 130 143  106 124 137  109 125 137  111 127 140  111 128 142  111 126 138
111 127 141  111 128 138  111 125 137  111 126 138  108 122 136  108 125 139
109 124 136  109 124 137  110 126 137  110 125 136  107 123 135  105 121 132
108 123 134  110 124 135  104 120 132  110 124 134  107 122 133  108 122 134
106 121 133  101 118 129  103 118 130  102 118 127  101 116 126  105 119 129
99 113 126  102 117 128  101 116 128  100 116 127  101 116 128  100 116 125
96 114 124  98 114 123
5 7 9  7 9 11  7 10 11  7 8 10  7 8 10  7 8 10
6 8 10  7 8 10  7 9 11  7 9 11  8 9 11  8 10 12
9 11 13  14 18 20  16 23 28  15 20 23  9 12 13  6 8 11
5 6 8  4 6 7  4 5 7  4 4 6  3 4 6  3 3 5
3 3 5  3 3 5  3 4 6  4 5 7  5 6 8  6 8 10
8 11 13  11 17 18  16 22 24  25 33 36  37 48 52  51 64 72
68 81 89  81 97 108  93 109 121  101 116 130  106 121 134  111 128 143
113 131 143  109 126 139  113 130 142  111 128 141  111 127 142  113 128 140
111 126 140  110 126 139  108 125 136  112 127 137  106 121 134  108 122 135
109 124 137  109 123 135  108 125 138  105 122 135  111 127 138  107 123 134
107 124 135  108 124 136  106 125 137  106 124 136  107 122 133  110 124 138
106 122 134  102 118 130  104 120 132  103 119 130  103 119 129  102 119 129
102 117 130  103 118 129  101 118 129  101 117 126  105 121 133  100 116 127
99 115 125  95 111 121
3 3 5  3 4 5  4 5 7  6 7 9  8 9 11  8 9 11
7 8 10  7 9 11  8 9 11  8 9 11  8 9 11  8 10 11
9 11 13  10 13 14  16 22 24  22 30 36  27 34 39  33 40 49
22 31 37  14 19 22  8 10 12  6 8 10  5 7 9  5 6 8
5 5 7  4 4 6  3 4 6  3 4 6  3 4 6  3 3 5
2 3 5  3 4 6  4 5 7  5 6 8  6 8 10  7 10 12
12 14 16  15 19 20  21 27 30  26 35 38  40 52 57  59 73 80
74 90 97  89 105 114  90 107 120  107 123 136  109 126 139  114 129 142
117 130 146  112 127 142  113 128 140  114 127 142  109 125 139  110 126 137
109 124 136  109 125 137  108 123 136  111 126 138  106 122 133  107 122 135
107 123 135  108 125 138  110 127 140  107 123 135  109 123 136  111 123 137
102 119 132  101 117 129  103 121 130  107 122 133  104 119 130  105 119 131
100 117 129  102 118 128  105 120 129  101 117 127  102 118 129  97 115 124
97 113 123  97 112 123
11 16 20  6 8 11  3 4 6  3 4 6  5 6 8  7 8 10
7 9 11  8 9 11  8 9 11  8 10 11  8 10 11  8 10 12
8 11 12  10 12 14  9 13 14  9 13 14  10 13 15  10 15 15
19 25 29  29 37 44  38 45 52  24 33 38  33 40 46  17 23 27
8 10 12  7 9 11  6 7 9  5 6 8  4 5 7  4 5 7
4 5 7  4 5 6  3 4 6  3 3 5  3 3 5  3 3 5
3 4 6  3 4 6  5 6 7  5 7 9  6 9 10  8 12 13
13 16 18  16 22 24  24 31 33  34 43 46  49 61 67  61 73 82
81 95 105  88 101 111  96 114 127  106 121 134  111 125 138  115 131 143
111 126 138  113 129 140  112 129 141  110 125 138  112 128 140  112 124 138
112 124 137  108 124 136  111 127 141  109 124 137  109 126 137  107 125 135
108 123 134  107 121 133  105 121 133  105 121 134  107 122 134  104 119 131
103 119 132  104 118 129  106 121 131  104 118 130  103 118 129  98 113 125
100 115 126  102 116 128
10 15 19  14 19 25  11 16 20  6 8 10  9 11 12  8 10 11
8 10 11  8 10 12  9 10 12  9 10 12  8 10 12  9 11 13
9 12 13  10 13 14  10 13 14  10 13 14  10 14 14  10 13 14
11 13 14  10 13 14  10 13 15  9 14 15  15 20 23  27 37 42
38 46 56  37 45 54  50 56 66  14 22 26  8 11 13  7 9 11
5 7 9  5 6 8  5 6 8  4 5 7  4 4 6  4 5 6
4 4 6  3 3 5  3 3 5  3 3 5  3 3 5  3 4 6
3 4 6  4 5 7  5 7 8  6 8 10  7 10 12  11 13 15
13 18 20  17 23 26  24 33 37  36 47 52  44 56 63  66 78 86
81 95 104  89 104 112  98 114 126  104 119 133  109 126 139  111 126 139
113 127 139  112 126 139  112 127 139  113 127 140  114 127 139  107 122 134
107 122 134  107 122 134  109 123 135  105 120 132  103 117 129  107 123 134
106 120 133  104 119 131  106 121 133  105 118 129  103 118 129  101 117 129
99 114 125  99 113 124
6 8 10  4 6 7  6 8 10  9 10 12  10 12 13  10 11 13
9 11 12  10 12 13  10 12 14  9 12 13  9 12 13  10 12 14
10 13 14  11 13 15  10 13 14  10 13 15  11 13 15  10 13 14
11 14 15  11 13 15  10 13 15  10 14 15  9 13 14  10 13 14
10 13 15  10 13 15  16 22 22  47 55 63  58 68 75  45 55 63
42 49 57  36 44 55  7 11 12  8 11 12  6 8 10  5 7 8
6 7 9  4 5 7  4 4 6  4 5 7  3 4 6  3 4 6
3 4 6  3 3 5  3 3 5  3 3 5  3 4 6  4 4 6
4 5 7  5 6 8  6 7 10  6 9 11  9 12 14  12 16 18
14 19 21  19 25 28  28 37 40  35 45 50  48 59 64  61 74 81
76 91 99  86 101 112  96 110 119  104 120 131  107 123 136  108 123 136
111 125 138  110 123 136  109 122 136  106 121 132  106 119 130  105 120 132
105 118 130  108 119 132  103 118 131  104 118 130  105 118 130  103 117 128
101 116 128  99 114 124
20 28 35  13 19 24  9 11 12  9 10 12  10 12 14  10 12 14
11 13 14  11 13 15  12 14 16  11 13 15  12 14 15  11 14 15
12 14 16  11 14 15  11 14 15  11 14 16  10 14 15  11 14 15
10 14 15  11 13 15  10 13 15  10 13 15  10 14 15  10 13 15
10 13 15  10 13 14  10 13 15  9 13 14  9 13 14  10 14 15
13 19 20  35 42 43  65 72 83  57 67 71  48 59 67  63 72 74
8 11 13  7 10 12  6 8 10  6 9 11  5 6 8  4 6 8
5 6 7  3 5 7  4 5 7  4 5 7  3 4 6  3 4 6
3 4 6  3 4 5  3 4 6  3 4 6  3 4 6  4 5 7
4 6 7  5 6 8  6 8 10  8 10 12  11 13 15  13 16 19
15 20 22  23 27 30  25 32 36  34 43 48  45 55 63  58 70 76
70 86 93  82 98 107  92 107 118  100 114 124  102 117 129  105 118 132
108 121 133  106 119 132  105 120 133  101 116 128  102 117 129  100 115 128
102 117 128  99 116 126
15 20 26  13 19 23  8 10 12  11 13 14  12 14 15  12 14 15
13 15 17  14 15 17  14 16 18  13 15 17  13 15 17  13 15 17
13 16 17  13 16 17  13 15 17  12 15 16  12 15 16  12 15 16
11 15 16  11 14 16  10 14 15  11 14 15  10 14 16  10 14 15
11 13 15  10 13 15  10 13 15  9 13 15  8 13 14  9 13 14
9 13 14  9 13 14  9 13 15  10 14 15  11 15 16  31 39 32
62 68 71  48 58 63  74 85 94  48 55 62  7 12 15  6 10 12
8 11 13  6 8 10  5 7 9  5 7 9  4 5 7  4 5 7
4 5 7  4 4 6  4 5 7  3 4 6  3 4 6  3 4 6
3 4 5  3 3 5  3 4 6  4 4 6  4 5 6  4 5 7
5 6 8  6 7 9  7 9 11  9 11 14  12 15 18  13 16 20
17 21 23  21 27 31  27 36 40  37 47 51  42 53 58  54 68 74
67 80 87  77 93 102  84 99 109  94 107 119  100 115 125  103 116 128
100 115 128  103 116 128
4 6 7  6 8 10  8 11 12  13 15 16  12 14 16  13 16 17
14 16 17  15 17 18  15 17 19  15 17 18  15 17 18  15 18 19
16 19 20  15 18 19  14 17 19  14 17 18  13 17 18  13 16 17
13 16 17  12 15 16  12 15 17  12 15 16  11 15 16  11 14 15
11 14 16  9 14 15  9 13 15  10 13 15  10 13 14  10 13 15
9 12 14  9 13 15  9 13 15  10 14 15  9 12 14  9 13 14
9 13 15  9 13 15  9 15 15  17 26 21  44 54 60  78 91 99
61 65 65  66 77 79  44 53 59  9 12 14  6 9 11  6 9 11
7 10 13  5 6 8  5 7 10  5 6 7  4 5 7  4 5 7
4 4 6  4 5 7  3 4 6  3 4 6  3 4 6  3 4 6
3 4 6  3 4 6  3 4 6  4 4 6  4 5 7  4 6 7
5 7 9  6 8 10  8 10 12  10 12 14  11 15 17  14 18 20
17 22 25  20 27 30  24 30 34  30 39 44  40 52 57  52 63 70
65 76 84  72 85 92
14 17 20  7 8 10  13 14 16  14 15 17  14 16 17  15 17 18
16 17 19  16 18 19  16 19 20  17 19 20  17 19 20  17 20 21
17 20 21  17 20 21  16 20 21  16 19 20  15 18 19  15 18 19
15 17 18  14 17 18  14 17 18  14 16 18  13 16 17  12 15 17
11 15 16  11 14 16  11 14 16  11 14 16  11 14 16  9 13 14
10 13 15  10 14 15  10 14 15  10 13 15  9 13 15  9 13 14
10 13 15  9 13 15  9 12 14  10 13 14  9 13 15  10 14 16
9 13 15  10 15 16  66 78 76  79 87 88  42 49 49  79 93 89
13 18 31  9 12 20  8 12 14  6 9 11  7 10 12  7 9 11
6 8 10  5 7 10  4 6 8  4 5 7  4 4 6  4 5 7
3 4 6  4 5 7  3 4 6  3 4 6  3 4 6  3 4 6
3 4 6  3 4 6  4 4 6  4 5 7  5 5 7  5 6 8
7 7 9  8 9 11  9 11 13  11 13 15  12 15 17  15 18 20
17 22 24  20 26 29
8 9 11  9 10 12  14 15 17  14 16 18  15 17 19  16 17 19
17 19 20  17 19 20  18 20 21  19 21 23  18 21 22  19 22 23
20 22 24  19 22 23  19 22 23  18 21 22  18 21 22  16 19 21
17 20 21  16 19 21  16 18 20  15 18 20  13 17 18  14 17 18
12 16 17  12 15 17  12 15 16  12 16 18  11 14 16  10 14 15
10 14 16  10 14 16  11 14 16  11 14 15  9 13 15  11 14 15
10 15 16  11 15 17  9 13 15  9 13 14  10 15 17  9 12 14
10 15 16  9 13 15  8 13 14  10 13 15  10 14 16  9 14 17
27 33 32  62 74 85  63 74 77  59 67 86  52 59 65  30 32 48
8 12 14  7 11 13  8 10 13  7 10 12  6 9 12  6 7 9
6 7 10  4 5 7  4 5 7  3 4 6  4 5 7  4 4 6
3 4 6  3 4 6  3 4 6  3 4 6  3 4 6  3 4 6
3 4 6  3 4 6  4 4 6  4 5 7  5 6 8  6 7 9
6 8 10  8 9 11
7 8 10  12 13 15  14 15 17  15 17 18  15 18 19  17 18 20
18 20 21  19 21 22  19 21 22  21 23 25  21 23 24  22 24 25
21 25 25  21 24 25  20 24 24  21 24 25  20 23 25  20 24 25
19 23 23  19 23 24  18 22 23  17 20 22  16 19 21  16 19 20
14 18 19  14 17 19  13 17 18  11 16 17  13 16 18  13 16 18
12 16 18  12 16 18  11 14 16  11 15 17  11 15 16  10 14 16
11 15 16  10 14 16  9 13 15  10 14 16  12 15 17  10 14 16
8 12 14  11 15 17  8 12 14  11 14 16  9 13 15  8 11 13
9 13 15  8 12 15  8 12 13  9 13 16  16 20 22  57 71 73
49 58 60  55 66 73  54 62 65  55 70 78  9 14 17  8 11 14
9 13 16  7 9 11  9 12 15  5 7 9  7 11 13  5 6 8
4 6 8  4 5 7  4 5 7  3 4 6  3 4 6  3 4 6
3 4 6  3 4 6  3 4 6  3 4 6  3 3 5  3 4 6
3 4 6  4 4 6
8 10 11  12 14 15  13 15 17  15 17 18  16 18 19  16 18 20
18 20 21  19 21 23  19 21 22  21 24 25  23 26 27  25 27 28
23 28 28  24 27 28  24 27 28  24 27 28  24 28 29  23 27 28
22 26 27  21 25 26  22 26 27  20 24 26  18 23 24  17 22 23
16 20 21  16 20 21  16 19 20  15 19 20  15 19 21  14 18 20
15 18 20  12 17 19  15 19 20  13 17 19  12 16 17  12 17 18
13 17 18  12 16 18  10 15 16  11 15 17  12 16 18  11 14 15
12 15 17  11 15 16  11 14 16  9 12 15  9 13 15  10 13 15
9 13 15  8 12 14  7 12 14  8 13 15  8 12 13  9 12 14
7 11 13  8 12 14  9 14 17  27 31 39  23 30 34  74 89 96
20 27 32  64 75 84  19 25 32  11 17 23  8 13 15  9 12 15
6 10 12  8 13 16  5 8 10  7 11 14  4 6 8  5 7 9
4 5 7  4 5 7  3 4 6  3 4 6  3 4 6  3 4 6
3 4 6  3 3 5
10 12 13  13 14 16  14 15 17  14 16 17  15 17 19  16 18 20
18 20 21  19 21 22  19 21 23  21 23 24  22 25 25  25 27 28
26 28 29  25 29 29  26 29 30  27 30 31  27 31 32  28 32 32
29 32 33  27 31 32  27 31 31  26 30 31  25 29 30  22 25 27
22 25 27  18 22 24  20 24 25  21 25 27  18 23 24  18 22 24
15 19 20  17 21 23  15 20 22  17 20 21  13 17 18  16 20 22
14 18 19  11 15 17  14 19 21  12 17 19  13 17 19  11 15 17
12 17 19  11 14 17  11 16 17  13 17 19  11 14 16  9 12 14
12 15 17  9 13 15  9 14 16  8 12 14  8 12 14  9 12 14
7 11 13  8 12 14  7 11 13  8 12 14  7 11 13  8 12 14
7 12 14  24 31 34  17 24 27  58 70 75  57 69 75  27 35 40
58 66 76  12 18 21  8 12 16  10 16 18  7 10 12  10 15 18
6 10 12  8 13 15  8 12 15  6 7 9  6 10 13  4 5 7
4 5 7  3 4 6
10 11 13  12 13 14  13 14 16  13 16 17  15 17 18  16 17 19
17 19 20  18 20 21  18 21 22  19 22 23  21 24 25  24 28 28
26 28 29  27 29 30  26 30 31  27 30 31  30 33 34  33 36 37
32 36 37  34 37 38  36 39 40  35 39 40  32 36 37  29 33 33
29 32 34  30 33 34  27 30 32  28 32 33  25 28 30  20 24 25
24 28 30  23 28 30  21 25 27  14 19 21  22 29 31  16 22 23
17 21 22  19 24 26  18 22 24  14 19 20  13 17 20  16 21 22
16 20 22  13 18 20  12 15 17  14 18 19  9 13 15  12 16 18
11 15 17  9 13 15  11 16 18  9 13 15  10 13 16  8 12 14
9 12 15  9 12 14  8 12 15  8 12 14  8 12 14  8 11 13
8 12 14  7 11 13  8 12 14  7 11 13  8 12 14  10 14 16
44 50 54  15 21 25  66 78 84  36 43 50  46 58 65  25 31 37
23 30 37  8 13 17  13 19 23  7 11 13  14 21 25  6 8 11
13 20 22  9 13 16
10 11 13  11 12 14  12 14 15  13 15 16  15 16 18  14 16 18
16 18 19  17 19 20  18 20 21  19 21 22  21 22 23  21 24 25
22 26 27  24 27 28  26 29 30  27 30 31  28 31 33  31 34 35
31 34 35  35 38 39  38 42 43  39 44 44  39 43 44  40 44 44
43 46 47  39 43 43  33 37 38  32 36 37  25 31 31  30 35 36
37 40 42  30 35 36  19 24 25  29 33 35  27 33 34  24 28 29
16 21 22  24 30 31  21 26 28  19 24 25  17 22 24  21 26 28
14 19 21  13 17 19  17 22 24  17 21 23  12 16 17  15 20 22
11 16 17  12 17 19  12 16 19  9 13 15  10 14 17  10 13 15
11 15 17  8 12 13  10 14 16  8 12 13  9 13 15  7 11 13
10 14 16  8 11 13  9 12 15  8 11 13  8 12 15  8 11 13
9 12 14  8 11 13  8 13 15  8 12 14  23 30 33  18 24 28
58 69 73  39 47 54  31 40 45  44 55 62  16 23 27  15 22 28
12 18 21  18 25 29
9 11 12  11 12 14  11 13 14  13 14 15  13 15 17  15 16 18
15 17 18  16 17 19  17 19 20  17 19 21  18 21 22  19 23 24
20 24 25  21 24 25  21 24 26  24 28 28  26 29 30  28 31 32
30 33 34  32 35 36  37 39 40  37 40 41  42 45 45  42 47 47
45 49 48  40 42 43  37 40 41  34 38 39  42 46 47  48 53 53
43 47 48  33 37 38  37 41 42  42 45 46  35 39 39  25 28 30
35 39 41  38 43 45  24 29 31  18 23 26  27 33 34  24 29 30
22 27 28  20 25 27  25 30 32  15 20 21  18 23 26  21 25 26
12 16 18  17 21 24  10 14 16  13 18 21  13 18 20  9 14 16
11 15 17  9 13 16  11 16 18  9 13 15  10 15 17  9 13 15
9 13 15  8 12 14  8 13 15  8 13 14  8 12 15  8 12 14
7 12 15  8 13 15  9 13 15  8 13 15  8 13 16  8 12 15
8 13 16  8 14 16  11 17 21  28 36 40  13 20 23  44 57 62
37 49 55  25 35 39
9 10 12  9 11 13  11 12 14  11 13 15  12 14 16  13 15 17
14 16 18  15 16 18  16 18 19  16 17 19  17 19 21  18 21 22
18 21 23  19 21 23  19 22 23  22 25 26  24 27 28  24 27 28
25 29 30  27 31 31  29 33 34  34 37 38  36 40 41  36 41 41
35 40 41  32 36 36  32 36 37  41 45 45  51 54 55  52 55 56
36 39 40  44 47 47  55 60 61  45 47 49  33 36 37  45 50 51
46 51 52  36 39 40  32 35 36  44 48 50  40 46 48  38 41 44
24 28 30  30 35 36  23 28 30  18 22 24  30 36 37  18 22 24
18 23 26  20 25 27  13 17 19  21 26 28  10 14 16  16 21 25
12 15 17  15 20 22  10 14 16  15 20 22  9 13 16  13 18 20
8 13 16  13 17 19  8 12 14  10 15 18  8 12 15  10 14 17
8 12 15  10 14 16  9 12 15  10 14 17  8 12 14  10 14 16
9 12 15  9 15 18  7 11 14  9 14 16  8 12 14  9 15 19
9 14 16  14 21 24
8 9 11  9 10 12  9 11 12  11 12 14  12 13 15  12 14 15
13 15 17  14 16 17  15 17 18  15 17 18  16 18 19  16 19 20
17 19 20  16 19 20  18 21 22  19 22 23  20 23 25  20 24 25
23 25 26  21 25 26  22 27 28  25 30 30  27 31 32  29 32 33
30 34 35  29 32 34  38 41 42  42 47 47  45 48 49  38 41 42
39 43 44  54 57 58  53 56 56  40 43 44  46 49 50  59 62 63
59 61 63  43 45 45  48 52 53  56 59 60  45 48 50  34 39 41
42 46 48  44 48 51  27 30 32  39 44 45  31 37 38  17 23 24
36 41 43  21 25 26  23 29 31  24 28 31  16 20 23  24 29 31
12 16 19  19 24 27  11 16 18  17 22 24  10 14 16  17 22 24
10 15 17  15 19 21  9 14 16  14 18 20  9 14 16  12 16 19
9 13 16  12 16 19  9 13 15  12 16 17  8 13 14  10 15 17
8 12 15  11 16 18  10 14 16  11 15 17  10 14 16  8 12 14
11 16 18  8 12 14
7 8 10  8 9 10  9 10 12  9 11 12  11 12 14  11 13 14
12 13 15  13 14 15  13 15 17  14 15 17  14 17 18  15 17 19
15 17 19  15 18 20  17 19 21  17 20 21  18 20 22  19 21 22
18 22 23  19 22 24  19 23 24  20 24 25  21 24 26  21 24 26
23 27 28  29 32 33  33 37 38  36 41 41  32 36 37  34 37 37
45 49 50  48 51 52  37 40 41  44 47 48  56 59 61  56 59 59
41 45 45  58 60 61  65 67 67  68 70 71  43 45 46  60 61 62
56 59 60  43 46 48  39 42 45  55 60 62  32 35 37  45 50 52
43 47 48  20 25 26  40 46 48  17 22 23  31 39 42  18 23 25
28 34 37  20 25 26  23 29 31  17 21 23  23 29 31  13 18 20
18 24 27  11 16 19  16 22 24  11 16 17  15 20 22  11 16 18
14 18 21  11 15 18  12 17 20  10 15 17  11 16 18  10 14 16
11 16 18  9 14 17  12 16 19  9 13 16  13 17 20  8 13 15
11 16 18  9 14 15
6 7 9  7 8 10  8 9 11  8 10 12  9 10 12  10 11 13
10 12 14  11 13 15  13 14 16  13 15 16  13 16 17  13 16 18
14 17 18  15 17 19  16 18 19  17 19 20  17 19 20  16 19 20
17 20 21  17 20 21  18 21 22  17 21 22  17 21 22  19 23 24
20 24 25  22 27 27  25 29 30  21 26 27  22 27 28  32 36 37
37 41 42  32 36 37  30 34 35  48 51 53  50 53 54  35 38 39
46 48 49  55 58 58  59 60 61  45 48 48  44 48 49  66 67 69
64 66 66  39 43 45  73 76 76  55 57 57  42 46 47  61 64 64
33 36 37  57 60 62  50 54 55  36 40 42  46 51 53  22 27 30
44 50 52  15 20 22  38 44 46  16 20 22  31 38 40  13 16 18
28 33 35  11 15 18  25 31 32  11 15 18  21 27 29  10 15 17
18 24 25  10 15 17  16 22 25  10 15 16  16 21 24  9 14 16
15 20 24  9 14 16  15 19 22  12 16 18  12 17 20  12 16 18
9 14 16  14 18 21
5 6 8  5 6 8  7 8 10  7 8 10  8 9 11  9 10 12
10 11 13  10 11 13  11 12 14  11 13 14  12 14 15  13 15 16
14 16 17  14 16 18  15 17 18  14 17 18  15 18 19  15 18 19
15 17 19  15 18 19  16 19 20  16 19 20  17 20 21  17 20 21
19 22 23  18 21 22  18 21 22  20 24 25  22 26 28  27 32 33
20 26 27  24 28 30  32 38 39  35 40 41  28 32 34  30 35 36
53 56 58  54 57 59  45 47 48  32 35 36  58 61 63  69 70 71
37 40 40  63 65 66  68 70 70  31 34 34  71 72 73  59 61 62
48 51 51  73 75 76  28 30 32  71 74 76  37 41 41  63 66 69
42 44 44  53 57 59  37 41 41  43 48 51  30 35 36  35 39 42
29 34 36  30 35 38  24 29 30  22 27 30  23 27 29  21 25 28
21 26 29  17 22 24  18 24 25  17 20 23  16 22 24  13 19 21
15 21 23  16 21 24  13 17 19  17 22 25  10 14 17  17 23 25
11 15 18  14 19 21
10 11 12  6 7 9  5 6 8  6 7 8  7 8 10  8 9 11
9 10 12  9 10 12  10 11 13  10 12 13  12 13 15  12 14 15
13 14 16  13 15 16  13 16 17  14 16 17  13 16 17  14 16 18
14 17 18  15 17 19  15 17 19  15 18 19  16 19 20  16 19 20
16 19 20  16 19 21  17 21 22  17 21 22  20 26 26  19 22 23
19 22 23  25 29 30  25 30 31  23 27 28  28 31 33  32 37 38
33 39 40  32 36 37  27 29 31  39 43 44  47 50 52  40 42 43
42 45 46  61 65 66  33 36 38  52 55 56  67 69 71  30 33 34
77 79 79  59 59 58  63 64 65  76 78 77  46 48 50  78 80 81
36 38 41  75 78 78  27 30 31  69 72 73  23 27 29  63 68 69
19 23 25  53 59 60  17 21 24  45 50 52  17 21 23  39 46 48
15 21 22  33 38 41  16 21 22  28 34 37  14 18 20  27 34 36
12 17 19  22 28 30  12 16 19  20 26 28  14 20 22  14 20 22
19 24 26  11 16 18
15 15 17  14 15 16  10 12 14  7 8 10  6 7 9  7 8 9
7 8 10  8 9 11  8 10 12  9 10 12  10 12 14  11 12 14
10 13 14  11 14 15  11 14 15  13 14 16  13 15 17  13 15 16
13 16 17  12 16 17  13 16 17  15 17 19  14 17 18  14 18 19
15 17 19  16 18 20  16 19 20  16 21 21  15 19 20  16 20 21
18 22 23  21 25 26  17 22 23  18 21 23  22 26 27  26 31 32
24 28 30  22 26 28  25 30 31  37 42 45  33 38 39  30 34 35
42 46 47  39 43 44  30 34 36  52 56 57  37 41 42  48 50 51
60 62 64  26 30 31  75 77 78  36 40 40  80 82 82  43 46 46
78 80 81  53 55 54  72 74 75  56 57 58  69 71 72  58 61 60
62 63 66  53 56 57  51 55 57  51 56 57  43 46 49  48 53 54
30 35 37  46 51 53  26 31 33  39 46 47  23 27 30  33 40 41
20 26 28  24 30 31  26 30 33  14 20 22  28 34 36  11 16 19
23 29 31  15 20 22
16 15 17  15 16 17  16 16 18  15 16 17  11 12 14  7 8 10
6 7 9  7 8 10  8 9 11  8 10 12  9 11 12  10 11 13
10 12 14  11 12 14  11 13 15  11 13 15  12 13 15  12 14 16
13 15 16  12 15 16  12 14 16  14 16 17  14 16 18  14 17 18
15 16 18  15 17 18  14 17 19  15 18 19  15 18 19  15 18 20
18 22 23  16 19 20  15 19 20  19 22 23  23 26 27  20 24 25
17 21 22  18 22 23  26 29 31  23 28 30  19 22 23  25 28 29
31 35 36  21 24 25  37 42 43  37 42 43  21 25 26  43 47 49
27 30 32  46 50 52  49 52 53  36 40 42  60 65 66  33 36 38
75 77 76  28 30 32  83 85 85  29 31 32  86 89 89  32 34 36
93 95 94  32 34 35  87 89 88  29 32 33  76 78 81  35 38 39
68 70 71  34 39 40  59 63 66  32 36 38  54 58 60  26 30 32
46 51 54  17 21 23  45 50 52  17 22 25  35 40 41  27 32 35
20 27 28  31 37 40
16 16 17  17 17 18  16 16 18  16 17 18  18 18 20  16 17 19
12 14 15  10 10 12  7 9 10  7 9 11  8 10 12  8 10 12
9 11 13  10 11 13  9 12 13  11 12 14  10 12 14  11 12 14
10 13 15  12 13 15  11 14 15  12 15 16  11 15 16  13 15 17
12 15 16  13 15 17  13 16 17  14 16 18  14 17 18  15 18 19
15 17 19  14 18 19  16 20 21  16 19 21  16 20 21  16 19 20
17 20 22  20 23 25  22 26 27  15 18 20  20 24 25  26 30 31
19 23 24  23 26 28  28 32 34  15 20 21  25 31 32  31 35 36
19 25 26  37 44 45  16 20 21  45 49 51  27 31 32  48 53 55
31 34 36  50 54 56  44 47 48  60 64 65  52 56 55  63 63 65
61 63 64  60 61 63  71 74 74  56 58 60  76 78 77  47 49 51
79 81 81  40 43 45  77 80 80  33 36 39  67 72 73  34 38 41
56 59 61  38 43 45  42 48 48  48 53 55  21 26 27  50 56 58
20 23 26  38 44 46
16 15 18  15 16 18  16 16 18  16 16 19  16 17 19  16 17 19
18 19 22  20 22 25  20 22 25  19 23 26  12 15 17  8 10 12
8 10 12  9 10 12  10 11 13  10 12 13  10 12 13  10 12 13
10 12 14  10 13 14  12 13 15  11 13 15  11 14 15  11 13 15
10 14 15  12 14 16  13 15 17  12 15 17  12 16 17  13 16 17
13 16 18  14 18 19  15 18 19  14 17 19  13 17 18  17 21 22
18 22 23  18 23 24  18 21 22  17 21 22  22 26 27  18 22 23
15 19 21  19 23 25  18 23 25  19 23 25  24 30 31  15 18 20
25 29 30  20 25 26  22 26 28  28 34 35  17 22 24  37 41 43
17 21 23  42 49 50  18 23 24  48 52 53  18 21 23  59 62 63
20 24 25  63 67 68  27 30 31  70 74 75  36 40 40  74 76 77
46 50 51  75 77 77  52 55 56  73 75 76  49 53 53  71 74 76
38 42 43  74 77 79  23 28 30  67 71 73  34 37 41  48 53 53
47 52 54  26 31 33
15 15 18  15 16 18  16 17 19  16 16 18  16 17 19  16 17 19
17 18 20  18 19 21  22 23 25  38 48 55  53 67 77  40 50 58
18 22 26  10 11 12  9 10 12  9 10 12  8 11 12  9 11 13
9 11 13  9 12 13  10 12 14  10 12 14  9 13 14  11 12 14
10 13 15  12 14 15  11 14 15  10 13 15  12 14 16  12 15 16
13 15 17  14 16 18  14 16 18  13 16 17  13 17 18  14 17 19
17 20 22  14 17 19  14 18 19  16 19 20  17 20 21  12 15 17
14 19 20  19 23 24  14 17 19  19 24 24  15 20 21  15 19 20
21 27 28  12 16 18  21 28 29  12 16 18  25 29 30  18 22 24
26 31 33  20 24 25  25 29 31  25 29 30  28 32 33  32 38 38
32 36 37  40 45 47  32 35 37  49 54 55  31 34 37  59 62 63
28 33 34  65 68 70  31 33 36  74 77 78  31 35 37  74 76 76
40 42 46  64 67 68  52 55 57  46 50 51  69 72 74  25 30 32
68 72 73  31 35 38
15 16 18  16 16 18  16 16 18  16 16 18  16 16 19  17 17 19
17 17 19  17 19 21  18 19 21  22 25 29  31 37 43  48 59 68
59 73 82  47 58 66  22 26 30  9 11 13  9 11 12  9 11 12
8 10 12  9 11 12  9 11 13  9 11 13  9 12 13  11 12 14
10 12 14  10 13 14  10 13 14  11 13 14  11 13 15  12 14 16
11 15 16  11 14 15  11 14 15  13 16 17  12 15 16  13 15 17
13 16 17  12 15 17  12 17 17  14 17 18  12 15 16  15 18 20
18 21 22  12 16 17  14 18 19  15 20 21  10 14 15  17 21 23
14 19 21  17 21 22  17 21 22  12 17 18  20 26 27  13 16 18
23 27 28  10 14 16  23 29 30  13 16 18  27 32 33  13 18 20
30 36 37  17 22 23  33 38 39  20 25 26  34 39 41  25 31 32
37 42 44  34 38 40  43 47 49  38 44 45  49 52 55  36 41 42
58 62 63  30 34 35  67 72 73  26 30 33  66 69 70  42 46 49
52 55 56  62 64 66
15 15 18  15 16 18  16 16 18  14 15 18  16 16 19  16 16 19
17 17 20  17 18 20  17 18 21  19 21 25  20 24 28  23 26 30
30 39 44  54 65 75  64 79 91  50 63 71  25 29 35  9 11 13
9 10 12  9 10 12  8 10 12  8 11 12  9 11 12  9 11 13
9 11 13  8 11 13  9 12 13  10 12 14  11 13 15  9 12 14
10 13 14  10 13 14  12 14 15  12 15 16  12 14 16  12 15 17
11 15 16  14 17 18  13 16 17  12 15 17  12 16 17  14 17 19
13 16 17  12 15 16  14 18 19  12 15 17  13 17 18  16 20 22
11 15 16  16 20 21  11 14 15  19 23 25  12 16 17  16 19 21
14 18 20  16 19 21  17 21 22  16 21 23  17 22 24  16 19 21
19 24 25  16 19 21  23 28 30  13 17 19  26 32 33  14 18 20
33 38 39  16 22 23  38 43 44  18 22 24  40 46 46  20 24 26
46 51 52  26 31 34  48 53 53  47 51 53  36 40 41  62 64 67
25 30 31  66 68 69
16 15 17  15 15 18  15 16 18  15 15 18  15 16 18  17 16 19
17 17 19  17 18 20  18 19 21  19 21 24  21 24 27  20 24 27
21 25 29  24 28 33  32 38 43  57 68 78  70 84 94  52 65 72
25 32 37  11 12 14  9 11 12  8 10 12  8 10 12  9 11 13
9 11 12  8 11 12  10 12 13  10 12 13  8 11 12  10 12 14
10 12 14  9 13 14  10 13 14  10 13 14  10 13 14  10 14 15
11 14 15  11 14 16  11 14 15  11 14 15  11 15 16  11 15 16
10 13 14  13 15 17  13 16 17  11 14 15  13 17 18  10 14 15
12 16 17  12 17 17  11 15 16  15 19 20  10 13 15  16 20 22
10 13 15  16 22 23  12 15 17  16 21 22  10 14 16  16 21 22
13 15 18  18 23 24  13 18 20  17 21 23  17 22 23  18 22 25
19 25 25  18 23 25  24 29 30  22 27 28  26 33 34  28 32 34
26 32 33  40 45 46  19 24 26  46 51 52  22 26 28  48 53 54
38 43 45  37 41 44
15 15 17  15 15 17  15 15 17  15 15 18  15 16 18  16 16 19
16 16 18  16 17 19  17 18 20  18 20 23  21 23 26  20 24 27
21 25 29  21 25 28  22 26 29  24 30 33  32 39 43  57 69 76
71 87 98  57 71 81  32 38 43  11 13 15  8 11 12  8 11 12
9 10 12  8 11 12  8 11 12  8 10 12  9 11 13  8 11 12
9 12 13  10 12 13  8 12 13  10 13 15  10 13 14  10 12 14
10 13 14  10 13 14  10 13 14  10 13 15  10 13 15  9 12 13
12 14 16  11 15 16  10 13 14  12 14 16  11 15 16  10 13 15
13 16 17  8 12 13  13 16 17  10 14 15  12 16 17  12 15 17
13 16 18  12 16 18  11 15 16  13 18 18  10 14 15  16 20 21
11 13 16  17 21 23  10 14 16  19 22 25  11 15 18  19 23 24
12 17 20  20 24 26  15 19 22  21 26 27  14 19 21  26 32 34
15 21 24  33 38 39  19 24 26  28 34 35  28 34 34  25 31 32
42 46 48  19 24 27
16 15 18  15 15 17  16 16 18  15 15 17  15 16 18  16 16 18
16 17 19  17 17 19  17 18 21  17 19 22  20 21 25  20 23 27
22 24 27  21 24 27  21 25 28  22 26 29  23 27 30  25 28 31
30 38 42  58 68 77  75 89 101  62 73 85  30 38 45  13 15 18
10 12 14  8 11 12  8 10 12  8 10 12  9 11 12  9 11 13
9 11 12  8 10 12  9 11 13  9 12 13  10 12 14  9 12 13
10 11 13  9 12 13  10 13 14  9 13 14  9 12 13  10 12 14
11 13 14  9 11 13  10 13 14  10 13 15  9 12 13  12 14 16
10 13 15  10 13 15  12 14 16  9 12 13  12 15 17  8 12 14
13 16 18  9 12 14  13 16 18  10 13 15  12 17 18  11 15 16
12 16 18  14 18 20  12 16 19  15 19 21  12 16 18  15 20 22
13 16 18  16 20 22  14 17 20  18 23 24  14 18 20  21 25 27
18 22 25  18 23 24  23 28 30  16 22 23  30 35 37  17 23 25
28 34 36  24 29 31
16 15 18  15 16 18  15 15 18  15 15 18  14 15 18  15 16 18
15 16 18  16 17 19  16 18 20  18 19 21  19 22 25  21 22 25
20 23 26  21 24 27  21 24 28  22 25 30  21 25 29  23 26 30
22 26 29  23 28 32  31 36 42  59 72 81  80 92 105  66 78 91
33 43 49  15 19 22  10 12 14  9 12 13  8 11 12  7 10 11
7 10 11  8 10 12  8 11 12  9 11 12  9 11 13  8 12 13
9 12 13  9 12 13  10 12 13  8 11 12  8 11 12  9 12 13
8 11 13  8 11 12  9 12 13  9 11 13  9 12 14  10 13 14
8 11 13  11 13 15  8 11 13  9 14 15  9 12 14  11 13 15
10 13 14  9 12 13  11 15 16  10 12 14  12 15 17  9 13 15
14 18 19  9 14 15  12 17 18  12 16 17  14 19 20  12 17 19
12 17 20  12 17 19  15 19 21  13 19 20  15 20 22  13 18 20
19 23 25  12 17 19  18 24 25  15 20 22  20 26 28  18 23 26
18 25 27  22 28 29
16 15 18  16 15 18  15 15 17  15 16 17  14 15 17  15 15 18
16 16 18  16 16 19  17 17 19  17 18 21  19 20 24  18 21 24
19 22 24  21 24 27  20 24 28  21 24 27  21 25 28  23 25 28
23 26 29  22 26 29  22 25 30  25 29 33  28 35 41  59 71 79
82 96 107  72 86 98  42 51 59  18 22 25  9 12 14  9 11 13
9 11 12  8 11 12  7 10 12  8 10 12  8 11 13  8 12 13
10 11 13  8 11 12  8 10 12  7 10 12  8 10 12  8 11 12
8 10 12  10 11 13  9 11 12  8 10 12  9 12 13  9 11 13
9 11 13  9 12 13  8 11 12  10 13 14  8 11 12  10 13 14
8 11 13  10 14 15  9 13 15  9 13 15  9 13 15  9 13 14
11 14 16  10 13 15  10 15 17  10 14 16  13 17 18  11 15 17
14 18 19  11 16 18  14 19 21  12 16 18  15 19 21  12 16 18
14 19 21  13 18 19  14 19 21  15 20 21  15 21 24  16 21 23
15 19 21  20 24 26
15 15 18  15 15 18  15 15 17  15 15 17  15 14 18  15 16 18
15 16 19  17 17 19  16 16 18  16 18 20  19 20 23  19 22 25
20 21 25  20 23 25  21 23 27  21 24 28  21 24 27  21 24 28
23 25 28  22 25 28  21 25 30  24 27 32  23 29 33  26 32 36
31 38 43  61 70 80  78 91 104  79 92 104  49 60 67  21 27 31
11 14 15  9 12 13  8 10 12  8 10 12  9 11 12  8 11 12
8 10 12  7 9 11  8 10 11  8 11 12  8 10 12  8 9 11
8 10 12  8 10 12  7 9 11  8 11 12  8 10 12  8 10 11
8 11 13  8 10 12  9 11 13  8 11 12  8 11 13  8 11 13
9 11 13  10 12 14  8 12 14  9 13 15  8 11 13  10 13 14
8 13 14  10 14 15  10 14 16  11 14 16  11 15 18  11 14 17
12 16 18  11 15 17  14 18 19  11 16 18  12 16 18  11 16 17
12 17 18  14 18 20  11 16 18  13 18 19  13 18 20  15 19 21
14 18 20  15 22 23
15 15 17  15 15 17  15 15 17  15 15 17  15 15 17  15 15 18
15 15 18  16 16 18  16 17 19  16 17 20  18 20 23  18 22 24
20 21 23  21 22 25  20 22 25  19 24 27  20 25 27  21 24 27
22 24 28  21 25 28  23 26 30  22 26 29  23 28 31  25 29 33
26 31 35  28 33 37  30 38 43  51 63 71  78 91 103  84 97 109
54 66 75  28 34 40  12 14 16  12 14 15  10 12 14  8 11 12
6 9 11  7 9 11  7 10 12  7 9 11  7 9 11  8 10 12
7 9 11  7 10 11  8 10 12  8 10 11  8 10 11  8 11 12
8 10 11  8 10 12  8 10 12  7 9 11  8 11 13  7 10 12
9 12 13  8 11 12  8 12 13  8 11 13  8 11 13  9 12 14
8 12 14  10 13 15  9 13 15  11 14 16  10 15 16  10 15 16
10 15 16  11 15 17  11 15 17  11 16 17  9 15 17  13 17 18
10 16 17  12 17 18  11 15 17  13 18 20  13 17 18  14 20 21
14 17 19  13 18 20
14 14 17  15 15 17  15 15 18  16 16 19  14 15 17  16 15 18
15 16 18  16 16 18  16 17 20  16 17 20  18 19 22  19 20 23
20 21 24  20 21 24  19 21 24  21 23 26  19 22 26  22 24 27
21 24 28  22 24 28  22 25 29  23 26 30  24 28 31  25 29 32
24 29 33  26 30 34  27 32 36  29 34 39  34 38 43  49 59 66
82 96 106  84 98 110  61 73 83  29 37 43  12 16 19  11 12 14
9 12 13  9 10 12  7 9 11  7 9 10  8 10 11  7 9 11
6 9 11  7 9 11  8 10 11  7 9 11  7 10 11  7 9 11
7 9 11  7 9 11  7 10 11  8 10 12  8 10 12  7 10 12
8 10 12  7 11 12  8 11 13  8 11 12  9 11 13  9 12 14
9 12 14  9 13 14  9 12 14  9 13 15  9 13 16  10 14 17
10 14 16  11 14 17  10 14 17  10 15 17  10 14 16  12 16 18
11 14 16  13 17 19  12 16 17  13 18 20  13 17 19  11 17 19
15 19 21  13 16 18
16 14 17  15 15 17  15 15 17  15 14 17  15 15 18  15 15 18
15 15 18  16 16 18  15 16 18  16 17 20  18 19 21  19 21 23
19 21 24  19 21 24  18 21 23  19 22 25  20 22 25  21 23 26
23 24 28  22 24 28  21 25 28  23 26 30  25 28 32  24 27 32
24 29 32  25 30 34  27 30 35  28 32 36  28 32 37  27 33 37
32 37 42  44 51 57  78 88 99  89 103 115  73 85 96  36 44 50
17 19 21  11 13 14  9 10 12  8 10 12  8 10 12  7 9 11
7 9 10  7 9 11  6 9 10  7 9 11  8 9 11  7 8 10
6 9 11  7 9 11  7 10 11  7 10 11  7 10 11  7 10 11
7 10 12  7 10 12  8 10 12  8 10 12  9 11 13  8 11 13
9 12 14  9 13 15  9 12 13  10 14 15  9 12 14  10 15 18
9 12 14  11 15 17  10 14 15  11 15 17  10 13 16  11 15 18
11 14 16  11 15 18  13 16 18  10 15 16  13 18 20  11 14 16
14 19 21  13 16 18
15 14 17  15 15 17  16 15 18  15 15 18  15 15 18  15 15 17
16 15 18  16 16 18  16 16 19  16 17 19  18 19 21  19 20 23
19 20 23  18 20 23  20 21 24  19 21 24  19 22 25  20 23 26
21 24 27  21 23 27  23 25 29  22 25 29  24 26 31  24 29 31
24 28 33  25 29 34  24 29 33  26 31 35  28 33 38  28 32 36
28 34 38  28 32 36  30 36 41  36 45 51  70 80 92  86 97 112
71 81 93  39 49 55  13 16 19  11 13 16  9 11 12  7 10 12
8 10 11  6 9 10  7 8 10  7 9 11  7 9 10  7 9 11
8 9 11  7 9 11  7 9 11  7 9 11  7 9 11  8 9 12
8 10 12  7 10 11  8 10 12  8 10 12  8 11 13  9 11 13
8 12 14  9 12 14  9 12 14  8 12 14  9 13 15  10 14 16
10 13 15  10 14 16  9 13 15  9 14 16  10 14 16  10 14 16
12 15 18  10 13 15  13 18 20  10 13 15  13 17 19  10 14 16
12 17 18  15 19 22
15 14 17  15 14 17  16 15 18  15 15 17  15 14 17  15 15 17
16 15 18  15 16 18  16 16 19  16 16 19  16 18 21  17 19 22
19 20 23  18 20 23  19 20 24  20 21 24  20 21 24  19 21 24
20 23 26  19 23 25  22 24 28  22 25 28  23 27 31  24 28 31
26 28 33  25 30 33  22 28 32  26 32 36  25 30 34  25 31 35
27 32 37  26 30 34  26 31 35  31 36 41  27 32 38  35 41 47
60 70 80  84 94 107  79 92 103  42 52 58  17 20 23  10 13 15
8 11 13  8 9 11  7 10 11  7 9 11  7 8 10  7 9 11
6 8 11  7 9 11  6 8 10  7 9 11  7 9 11  7 10 12
8 10 12  7 9 11  8 10 12  7 10 11  8 11 12  8 11 12
9 12 15  8 11 12  8 13 14  8 11 13  10 13 15  8 12 14
9 14 16  8 12 13  11 15 17  8 12 13  11 15 18  8 12 14
11 15 18  10 13 15  12 16 18  11 15 17  10 15 16  13 18 20
10 14 16  14 20 22
14 15 17  14 14 17  15 14 17  15 15 18  15 14 17  16 14 18
16 15 18  15 15 18  15 15 18  15 16 19  16 17 20  18 19 22
18 19 22  19 20 23  19 20 23  19 20 23  19 20 24  18 21 24
20 22 25  19 22 25  20 23 27  23 25 30  23 26 31  24 28 31
23 28 32  25 30 34  24 29 32  26 30 34  27 31 34  27 30 33
24 29 33  28 32 36  26 30 33  25 30 34  25 30 34  25 30 33
27 32 37  33 38 42  51 61 68  83 95 107  85 98 110  54 65 73
21 25 29  11 12 15  9 12 14  8 10 12  8 10 11  7 8 10
7 8 10  7 8 10  7 8 10  7 9 11  6 8 10  7 10 11
7 9 11  7 10 12  7 9 11  8 10 12  7 10 12  8 11 13
8 11 13  8 11 13  8 12 14  8 11 13  10 14 15  8 11 12
9 14 16  8 12 13  10 15 17  9 13 14  10 13 14  9 13 15
10 13 15  12 16 17  9 13 14  13 18 20  9 12 14  14 18 21
12 16 18  14 18 21
14 11 15  15 14 16  15 15 17  15 15 17  15 15 17  16 15 17
16 16 18  16 15 18  15 16 18  16 16 19  16 16 19  18 18 21
18 19 22  19 20 23  18 20 23  19 20 23  18 20 23  18 20 23
21 22 25  20 22 25  20 23 27  22 24 28  23 26 29  24 27 31
24 28 31  23 27 30  24 28 32  26 28 33  23 29 33  26 30 33
24 29 33  22 28 32  25 30 33  24 29 33  26 30 34  25 29 32
24 28 33  23 28 31  26 29 33  28 33 38  44 52 60  82 93 105
88 101 114  64 74 85  28 33 37  12 14 16  11 12 14  9 10 12
9 10 12  7 8 10  7 9 11  7 9 11  7 10 11  8 9 11
8 9 11  8 9 11  7 9 11  8 11 13  8 9 11  10 12 14
7 10 12  9 12 15  8 10 12  10 13 15  8 11 13  10 13 14
9 12 14  10 13 15  9 12 14  10 14 16  8 11 13  11 15 17
8 11 12  13 17 19  10 12 14  12 17 17  12 15 17  12 16 17
14 21 23  12 15 17
12 7 13  13 8 14  14 14 16  15 14 17  16 15 18  16 15 19
16 15 18  15 15 18  16 15 19  16 16 18  16 17 19  17 17 20
18 18 22  17 19 22  18 19 22  19 19 23  18 19 23  19 20 22
18 20 23  18 20 24  20 23 27  21 23 27  23 25 28  23 26 30
24 27 30  23 26 31  25 27 31  25 29 34  26 30 34  26 28 34
25 29 33  24 28 32  27 29 33  27 30 35  24 27 32  25 27 31
25 27 32  23 26 30  22 24 28  23 25 29  24 27 31  28 31 36
37 43 51  79 87 99  90 102 116  76 87 98  35 42 49  16 17 21
10 12 14  9 11 13  9 10 13  7 9 11  8 10 12  7 8 10
8 10 13  7 8 10  8 10 12  7 10 11  8 10 12  9 11 13
8 11 13  10 12 15  8 10 12  10 14 16  8 11 12  10 14 16
8 10 13  11 15 17  8 11 13  10 14 16  9 12 14  11 15 17
10 13 15  10 14 16  12 15 17  9 13 14  14 18 20  9 13 14
15 22 25  15 18 21
12 9 13  12 7 13  11 7 12  14 12 15  14 15 17  16 15 18
16 15 18  15 15 17  16 15 18  16 16 18  16 16 18  17 17 20
18 18 21  18 19 22  19 20 23  18 18 22  18 19 23  19 20 22
19 20 23  20 21 24  19 21 26  22 23 26  21 23 27  21 25 29
23 25 30  24 26 30  25 27 31  24 27 32  25 28 32  26 30 33
25 28 31  27 30 34  26 28 33  26 29 32  26 28 33  26 28 32
24 27 31  22 25 29  25 27 31  22 26 29  23 25 28  21 24 27
23 24 27  26 29 34  34 40 46  67 77 87  87 99 112  85 96 107
49 57 63  20 22 25  11 12 15  10 12 15  8 10 12  9 10 12
9 10 12  7 9 11  8 11 13  8 9 12  9 11 14  7 9 11
10 12 14  8 11 13  10 13 15  9 12 15  9 12 15  10 12 14
9 12 14  10 13 15  10 13 15  10 12 15  10 14 15  10 12 14
13 16 18  9 11 13  15 19 21  10 12 14  13 17 19  13 17 19
12 18 19  21 27 29
13 9 13  13 9 14  12 8 12  13 6 13  13 9 14  15 14 17
17 15 18  16 15 18  16 15 18  16 15 18  16 16 18  17 17 20
17 18 21  18 19 22  19 19 21  18 19 23  19 19 23  18 20 22
19 20 23  19 20 23  20 21 23  21 22 26  21 22 26  22 23 28
24 25 29  24 26 29  25 27 31  23 26 30  25 29 32  24 28 31
26 29 33  24 27 31  23 27 31  27 30 33  25 27 32  26 28 32
26 29 31  23 25 29  24 25 29  22 25 28  22 23 26  21 24 26
22 24 27  23 24 28  23 25 28  25 29 32  30 35 40  56 64 74
86 97 108  86 100 110  56 65 73  23 27 31  12 13 15  12 14 16
9 10 12  8 11 13  9 10 12  9 11 12  9 11 13  10 11 14
10 12 14  8 11 13  11 14 16  9 11 12  10 14 15  8 10 12
11 14 16  8 11 13  12 15 17  9 11 13  12 16 18  10 12 14
13 16 18  11 13 16  12 16 17  12 16 18  10 14 15  17 21 22
11 15 17  14 18 19
14 10 14  13 10 14  13 9 14  12 8 13  13 5 13  14 6 12
15 12 15  16 15 18  16 16 18  17 16 18  17 16 19  16 16 19
18 17 21  19 18 22  19 18 22  19 19 23  19 19 23  20 19 22
18 19 22  20 20 24  21 21 25  20 21 24  21 22 26  22 23 27
23 23 28  23 24 28  25 26 30  24 26 30  26 27 31  25 27 31
27 28 32  26 29 33  26 28 33  26 28 32  25 27 32  25 27 31
26 28 33  25 25 30  24 24 28  23 24 28  24 24 29  22 24 28
23 25 29  24 25 27  25 25 29  23 24 28  23 25 28  27 28 32
30 32 38  47 53 61  80 89 100  87 101 114  67 76 86  26 31 36
14 15 18  14 14 17  10 11 13  10 13 15  8 10 12  11 12 16
9 11 13  11 13 15  10 13 15  10 12 14  11 13 15  10 11 13
11 14 15  9 11 13  10 14 15  11 14 16  12 15 18  12 15 18
11 13 15  13 17 20  9 11 13  16 19 21  10 13 15  14 19 22
16 19 23  11 13 15
14 10 15  13 11 15  14 10 14  14 10 14  13 9 13  14 6 13
13 6 12  14 9 14  16 14 18  17 16 19  17 16 20  18 16 19
19 17 22  19 18 22  19 19 23  18 18 21  19 19 22  19 19 22
19 19 23  20 20 23  20 20 23  21 21 25  21 21 26  21 22 26
22 22 26  23 23 27  24 24 29  24 26 30  25 26 30  25 27 31
24 27 30  27 28 32  26 28 32  25 28 32  24 27 30  23 26 29
25 27 31  26 28 32  24 25 29  24 24 28  21 23 26  22 23 26
23 23 27  23 24 28  23 24 28  24 25 29  23 24 28  24 25 29
24 26 30  27 28 32  30 33 37  42 48 55  74 82 93  88 99 112
72 81 92  36 39 45  16 18 21  13 14 17  10 11 14  12 15 17
9 11 13  12 14 16  10 11 13  13 15 17  9 11 13  11 14 16
9 11 12  12 14 17  9 11 12  12 14 17  9 12 14  14 17 19
9 12 14  15 19 21  11 14 16  13 16 18  15 18 20  12 15 17
21 26 30  72 78 77
14 11 14  14 11 15  14 11 15  14 11 15  15 10 15  15 9 15
14 6 13  14 4 13  14 7 13  14 12 15  18 15 19  19 17 20
19 17 20  19 17 21  18 18 21  20 19 22  18 19 22  20 19 23
19 19 23  21 19 23  21 19 24  21 20 24  21 21 24  21 21 25
23 22 26  23 23 27  23 25 29  24 25 29  26 26 29  26 27 32
24 26 29  25 27 31  27 27 31  26 26 30  26 27 31  25 27 30
25 26 30  25 26 30  23 24 28  23 25 29  22 23 27  22 23 26
22 22 26  23 24 28  24 24 27  23 24 27  23 23 27  24 24 28
24 25 29  26 27 31  25 27 30  29 30 33  28 31 35  38 41 49
65 72 81  86 98 109  83 94 104  49 58 67  21 23 27  14 15 17
12 13 15  13 14 16  11 13 15  12 14 16  10 12 14  13 15 17
9 11 13  12 15 17  10 11 14  12 14 16  11 13 16  13 15 18
12 14 17  10 14 15  15 19 22  8 11 12  17 21 23  11 14 15
20 27 28  91 98 96
