P3
50 66
255
0 0 0  0 0 0  0 0 0  0 0 0  0 0 0  0 0 0
0 0 0  0 0 0  0 0 0  0 0 0  0 0 0  0 0 0
0 0 0  0 0 0  0 0 0  0 0 1  0 0 1  0 0 1
0 0 1  0 0 1  0 0 1  0 0 1  0 1 1  0 1 2
0 1 2  0 1 2  0 1 3  0 1 3  0 1 3  0 1 3
1 2 4  0 1 3  0 1 3  0 1 3  0 1 3  1 2 4
0 1 3  0 1 3  0 1 3  0 0 1  0 0 0  0 0 0
0 0 0  0 0 0  0 0 0  0 0 0  0 0 0  0 0 0
0 0 0  0 0 0
0 0 0  0 0 0  0 0 0  0 0 0  0 0 0  0 0 0
0 0 1  0 1 2  0 1 2  0 1 3  0 1 2  0 1 2
0 1 3  0 1 3  1 2 3  1 2 4  3 4 5  1 2 4
0 1 3  0 1 3  1 2 4  1 2 4  1 2 4  1 2 4
1 3 4  2 3 4  2 3 5  2 3 4  2 3 5  2 3 5
2 3 5  2 3 5  1 2 4  1 2 4  0 1 3  0 1 2
0 0 1  0 0 0  0 1 2  0 1 2  0 0 0  0 0 0
0 0 0  0 0 0  0 0 0  0 0 0  0 0 0  0 0 0
0 0 0  0 0 0
0 0 0  0 0 0  0 0 0  0 0 0  0 0 0  0 1 2
6 7 10  15 16 17  19 20 19  20 21 21  24 25 25  21 23 24
14 18 18  15 18 19  22 25 26  20 23 23  17 21 20  18 21 22
14 18 17  24 27 27  22 25 25  18 21 21  18 21 20  12 15 14
15 18 15  10 13 11  7 9 8  6 8 7  5 7 6  5 7 6
3 5 5  3 5 5  2 4 5  1 2 4  0 1 3  0 1 3
0 0 0  0 0 0  0 1 2  0 1 3  0 0 1  0 0 0
0 0 0  0 0 0  0 0 0  0 0 0  0 0 0  0 0 0
0 0 0  0 0 0
0 0 0  0 0 0  0 0 0  0 0 0  1 2 4  16 18 17
28 30 29  42 43 42  54 54 53  63 63 61  63 63 58  59 60 58
55 56 56  28 31 30  41 45 45  43 49 50  41 47 47  45 51 51
32 38 38  26 30 30  36 42 41  38 43 42  35 40 38  34 39 37
18 23 20  25 30 27  28 33 30  20 25 21  12 15 13  6 10 7
6 8 6  4 7 6  3 5 5  2 3 5  1 2 4  0 1 3
0 0 0  0 0 0  0 0 1  0 0 1  0 0 0  0 0 0
0 0 0  0 0 0  0 0 0  0 0 0  0 0 0  0 0 0
0 0 0  0 1 2
0 0 0  0 0 0  0 0 0  0 0 1  7 9 10  19 21 20
52 52 52  71 71 69  82 83 82  93 93 92  104 104 102  114 114 111
125 123 118  93 92 87  89 88 84  102 102 97  93 92 92  70 75 76
67 76 76  43 50 48  35 41 40  53 61 60  54 61 59  45 53 52
41 48 47  22 28 26  30 35 32  33 39 36  26 31 27  22 27 22
9 13 10  4 7 6  4 6 5  3 4 6  1 3 4  0 1 3
0 0 1  0 0 0  0 0 0  0 0 0  0 0 0  0 0 0
0 0 0  0 0 0  0 0 0  0 0 0  0 0 0  0 0 0
0 0 0  0 1 3
0 0 0  0 0 0  0 0 0  2 3 5  10 11 12  27 29 29
49 50 50  96 96 97  130 130 128  143 142 140  146 146 141  123 123 117
124 123 121  125 124 124  99 98 88  128 124 122  163 161 154  149 147 140
113 115 108  75 82 83  52 59 59  44 51 49  64 72 73  58 66 65
58 67 65  47 54 52  18 24 21  43 49 45  39 45 41  30 36 33
18 23 20  8 12 11  4 8 6  2 5 5  1 3 5  1 2 4
0 1 2  0 0 0  0 0 0  0 0 0  0 0 0  0 0 0
0 0 0  0 0 0  0 0 0  0 0 0  0 0 0  0 0 0
0 0 0  0 1 3
0 0 0  0 0 0  0 0 1  1 3 4  10 12 12  23 25 24
59 61 61  116 116 115  124 125 119  133 134 133  147 147 146  169 168 167
178 177 174  177 175 171  139 137 129  134 130 121  138 137 128  124 123 119
141 139 137  159 158 154  106 107 104  34 40 38  78 87 86  59 69 70
58 68 66  49 58 56  43 50 50  17 23 21  35 41 38  27 34 31
21 27 24  19 24 21  8 11 9  3 4 6  2 3 5  1 2 4
0 1 3  0 0 0  0 0 0  0 0 0  0 0 0  0 0 0
0 0 0  0 0 0  0 0 0  0 0 0  0 0 0  0 0 0
0 0 0  0 1 3
0 0 0  0 0 0  0 0 1  2 3 5  8 10 10  28 29 29
49 52 49  86 86 86  151 149 151  183 182 179  188 185 185  186 186 181
175 175 169  154 154 149  117 116 115  93 92 83  145 139 135  182 178 170
175 171 162  177 174 166  158 156 148  141 140 134  49 56 51  65 75 74
57 66 67  59 67 65  53 61 61  34 41 39  26 32 28  45 53 50
35 42 38  23 28 25  13 18 16  4 6 6  2 3 5  1 2 4
0 1 3  0 0 0  0 0 0  0 0 0  0 0 0  0 0 0
0 0 0  0 0 0  0 0 0  0 0 0  0 0 0  0 0 0
0 0 0  0 1 2
0 0 0  0 0 0  0 0 0  1 2 3  7 8 9  21 21 21
40 43 43  104 104 103  164 164 162  176 175 168  152 152 146  139 141 142
169 169 169  193 191 190  193 192 189  127 126 119  155 150 143  177 175 166
127 127 117  109 109 102  158 157 152  169 167 160  49 55 46  120 118 116
89 96 94  58 69 68  57 66 67  53 61 59  17 22 21  25 32 28
30 37 34  30 36 32  22 27 24  11 15 14  3 4 6  1 2 4
0 1 3  0 0 1  0 0 0  0 0 0  0 0 0  0 0 0
0 0 0  0 0 0  0 0 0  0 0 0  0 0 0  0 0 0
0 0 0  0 0 1
0 0 0  0 0 0  0 0 0  0 1 3  3 4 6  19 21 22
46 48 47  78 79 77  113 113 109  149 147 149  199 197 197  189 191 189
186 187 186  199 198 197  194 195 193  110 111 103  116 113 103  82 82 78
151 150 147  179 177 169  179 176 170  166 164 156  50 52 42  141 138 125
144 142 134  89 91 89  50 59 56  53 61 59  48 56 56  17 22 20
35 43 42  27 35 33  23 28 26  11 16 15  6 10 9  1 3 5
0 1 3  0 1 2  0 0 0  0 0 0  0 0 0  0 0 0
0 0 0  0 0 0  0 0 0  0 0 0  0 0 0  0 0 0
0 0 0  0 0 0
0 0 0  0 0 0  0 0 0  0 1 2  2 3 5  14 15 15
31 32 30  60 62 65  146 144 143  176 175 173  187 187 185  180 183 182
169 171 167  159 159 152  103 105 96  85 87 89  81 78 72  136 134 130
165 166 161  161 162 155  174 171 165  155 154 146  136 135 132  85 81 70
135 133 124  143 142 135  106 108 102  46 54 55  36 44 42  13 19 16
29 35 32  34 43 42  30 37 33  18 24 23  7 12 12  3 6 6
1 2 4  0 1 3  0 0 0  0 0 0  0 0 0  0 0 0
0 0 0  0 0 0  0 0 0  0 0 0  0 0 0  0 0 0
0 0 0  0 0 0
0 0 0  0 0 0  0 0 0  0 0 0  1 2 4  10 12 13
35 36 36  68 70 69  123 124 123  169 168 164  150 152 146  101 106 98
108 108 113  154 155 158  172 175 174  160 163 161  130 129 123  144 140 132
173 174 169  150 153 146  151 150 144  120 120 111  157 157 150  131 129 122
111 105 93  139 139 130  138 138 130  119 118 110  78 83 80  36 43 43
13 19 18  19 26 23  19 26 23  18 24 22  14 20 18  8 12 11
1 3 4  0 1 3  0 0 1  0 0 0  0 0 0  0 0 0
0 0 0  0 0 0  0 0 0  0 0 0  0 0 0  0 0 0
0 0 0  0 0 0
0 0 0  0 0 0  0 0 0  0 0 0  1 2 3  7 8 9
30 31 31  56 58 56  75 79 75  68 71 69  125 128 133  159 163 165
180 183 183  180 183 181  184 185 183  185 185 184  127 130 124  73 71 66
171 171 163  103 105 97  54 56 53  120 121 120  166 165 159  150 149 141
89 86 75  144 143 135  131 130 122  134 133 125  131 129 120  92 95 91
26 33 33  28 36 33  29 37 37  17 24 24  8 14 13  6 10 9
3 6 6  0 1 3  0 0 1  0 0 0  0 0 0  0 0 0
0 0 0  0 0 0  0 0 0  0 0 0  0 0 0  0 0 0
0 0 0  0 0 0
0 0 0  0 0 0  0 0 0  0 0 0  1 1 3  6 7 8
20 22 21  31 33 31  88 90 93  132 134 134  158 160 159  162 166 165
165 169 169  170 174 171  157 159 158  174 176 172  134 137 132  81 79 72
76 76 65  110 111 111  152 153 150  161 162 156  149 150 145  135 136 128
44 44 37  142 141 134  131 131 125  100 98 91  89 90 81  125 124 114
90 91 86  17 22 19  39 48 46  26 35 33  24 31 28  14 19 18
4 7 7  1 2 4  0 1 2  0 0 0  0 0 0  0 0 0
0 0 0  0 0 0  0 0 0  0 0 0  0 0 0  0 0 0
0 0 0  0 0 0
0 0 0  0 0 0  0 0 0  0 0 0  0 1 2  2 3 5
20 21 23  54 56 57  99 101 100  129 130 128  162 163 162  168 171 172
174 177 176  158 161 155  160 162 159  126 129 123  52 55 48  43 46 42
91 86 82  165 167 164  169 169 164  156 157 152  152 153 148  144 144 138
28 31 28  103 101 94  138 138 131  143 141 135  125 122 117  64 65 61
57 58 49  10 15 13  24 31 28  33 42 41  26 33 30  12 19 18
6 10 10  2 4 5  0 1 3  0 0 0  0 0 0  0 0 0
0 0 0  0 0 0  0 0 0  0 0 0  0 0 0  0 0 0
0 0 0  0 0 0
0 0 0  0 0 0  0 0 0  0 0 0  0 0 1  2 3 5
17 18 20  44 45 45  83 85 84  121 122 120  156 156 155  167 170 168
143 147 143  87 89 83  31 36 30  103 103 107  153 154 155  136 136 134
128 122 112  154 155 150  160 161 158  148 148 141  155 156 149  136 137 131
114 115 111  70 67 58  134 134 126  143 142 135  144 142 134  125 123 116
126 123 116  61 62 58  12 17 15  26 33 30  26 32 31  15 21 20
8 13 12  2 6 6  1 2 4  0 1 1  0 0 0  0 0 0
0 0 0  0 0 0  0 0 0  0 0 0  0 0 0  0 0 0
0 0 0  0 0 0
0 0 0  0 0 0  0 0 0  0 0 0  0 0 0  2 3 5
12 14 14  43 44 45  75 76 76  101 103 98  108 109 104  53 57 48
52 55 58  135 137 140  166 169 169  177 178 177  166 167 166  149 152 149
114 111 101  152 151 146  152 154 150  141 141 135  141 143 136  115 117 111
146 147 142  85 85 77  87 84 74  145 144 137  148 146 139  125 124 114
134 130 121  120 118 111  34 35 29  67 65 61  33 35 32  5 9 7
5 10 8  5 9 8  1 3 5  0 1 2  0 0 0  0 0 0
0 0 0  0 0 0  0 0 0  0 0 0  0 0 0  0 0 0
0 0 0  0 0 0
0 0 0  0 0 0  0 0 0  0 0 0  0 0 0  1 2 4
9 11 12  32 33 33  34 36 32  20 24 22  78 81 84  136 138 140
175 178 176  161 164 163  156 160 160  159 162 160  153 155 153  151 154 152
49 51 47  138 135 130  151 153 149  129 130 125  70 73 67  120 119 115
140 141 135  112 113 107  94 91 82  145 143 136  135 133 125  135 133 126
119 118 109  124 122 115  60 61 53  66 65 55  90 89 81  28 34 33
8 15 15  3 7 8  1 2 4  0 1 3  0 0 0  0 0 0
0 0 0  0 0 0  0 0 0  0 0 0  0 0 0  0 0 0
0 0 0  0 0 0
0 0 0  0 0 0  0 0 0  0 0 0  0 0 0  0 1 3
6 7 9  24 25 25  49 49 49  90 92 93  141 142 140  136 137 133
172 174 175  159 162 160  150 154 154  158 160 158  154 157 155  155 158 157
30 35 30  123 121 114  108 111 105  23 27 22  94 95 94  143 144 140
146 146 140  125 125 119  60 60 52  144 142 137  121 121 113  125 122 114
136 135 128  121 118 112  104 102 97  41 39 29  106 102 92  87 86 78
23 27 24  5 11 11  2 6 7  0 2 4  0 0 1  0 0 0
0 0 0  0 0 0  0 0 0  0 0 0  0 0 0  0 0 0
0 0 0  0 0 0
0 0 0  0 0 0  0 0 0  0 0 0  0 0 0  0 1 2
4 5 7  22 23 24  49 51 49  89 90 91  133 134 131  124 126 122
155 157 158  161 165 163  146 150 148  151 152 151  165 168 165  165 167 164
55 59 52  67 66 58  52 53 51  106 109 107  146 148 144  138 139 135
131 132 127  111 113 108  39 40 35  141 139 133  130 130 124  89 89 85
64 66 59  104 102 93  112 111 104  47 47 41  75 73 64  84 82 75
65 65 58  26 29 27  3 6 7  0 3 4  0 0 1  0 0 0
0 0 0  0 0 0  0 0 0  0 0 0  0 0 0  0 0 0
0 0 0  0 0 0
0 0 0  0 0 0  0 0 0  0 0 0  0 0 0  0 1 1
3 4 6  16 17 18  41 43 43  76 79 78  118 119 116  130 132 129
158 159 159  165 167 166  151 154 152  152 153 150  172 173 170  122 124 117
24 28 25  52 51 46  144 142 137  130 135 131  139 141 136  135 136 131
133 135 129  111 113 108  19 23 21  118 115 108  120 121 116  131 130 125
108 109 105  73 74 71  23 27 21  21 24 19  52 51 40  103 100 91
89 87 79  59 58 52  10 14 13  1 4 5  0 1 2  0 0 0
0 0 0  0 0 0  0 0 0  0 0 0  0 0 0  0 0 0
0 0 0  0 0 0
0 0 0  0 0 0  0 0 0  0 0 0  0 0 0  0 0 1
2 3 5  11 12 13  35 36 37  67 69 68  105 106 105  121 123 120
145 148 146  162 164 162  125 129 123  83 86 81  24 28 24  26 29 29
108 109 107  63 64 58  145 141 133  136 140 136  131 133 130  129 131 126
133 135 130  111 113 108  76 78 74  62 60 50  118 118 112  120 121 116
122 123 116  120 121 115  106 106 101  49 51 49  26 27 20  54 55 47
81 79 72  68 67 60  34 35 30  5 8 8  1 2 3  0 0 0
0 0 0  0 0 0  0 0 0  0 0 0  0 0 0  0 0 0
0 0 0  0 0 0
0 0 0  0 0 0  0 0 0  0 0 0  0 0 0  0 0 1
1 2 4  6 7 9  28 29 29  57 59 58  93 95 93  114 116 113
115 117 113  60 63 58  19 23 21  59 61 62  121 123 123  159 162 160
150 153 151  87 89 82  115 113 106  145 147 144  131 133 129  127 128 123
133 135 130  119 119 115  111 113 108  54 53 45  88 87 78  127 127 122
104 106 100  114 114 109  108 108 102  89 91 85  19 22 17  12 15 10
4 7 5  9 12 8  22 23 19  17 18 15  1 2 4  0 0 0
0 0 0  0 0 0  0 0 0  0 0 0  0 0 0  0 0 0
0 0 0  0 0 0
0 0 0  0 0 0  0 0 0  0 0 0  0 0 0  0 0 0
0 1 3  4 5 7  19 20 19  38 39 38  43 44 41  27 30 25
22 26 24  89 92 94  143 147 147  163 166 165  145 147 145  141 144 141
141 145 143  85 88 83  94 91 83  140 141 138  137 139 134  132 132 127
108 111 105  105 106 102  117 118 113  73 75 70  91 88 80  116 116 110
116 117 111  98 99 93  112 113 107  96 97 91  53 53 48  63 62 55
75 76 72  57 56 52  29 29 27  4 5 6  0 1 3  0 0 1
0 0 0  0 0 0  0 0 0  0 0 0  0 0 0  0 0 0
0 0 0  0 0 0
0 0 0  0 0 0  0 0 0  0 0 0  0 0 0  0 0 0
0 1 2  3 4 6  14 16 15  29 30 28  45 46 45  71 74 72
126 128 129  158 161 160  153 156 153  140 143 142  149 153 151  133 136 134
125 129 126  95 99 97  52 53 50  155 154 148  142 144 138  83 85 80
38 40 35  123 123 118  119 121 116  84 86 82  71 69 61  108 110 105
109 110 104  111 114 108  107 105 98  108 109 104  62 64 60  28 28 21
85 86 80  63 64 57  47 47 41  30 31 26  18 18 16  3 4 3
0 0 0  0 0 0  0 0 0  0 0 0  0 0 0  0 0 0
0 0 0  0 0 0
0 0 0  0 0 0  0 0 0  0 0 0  0 0 0  0 0 0
0 0 0  2 3 5  12 13 15  36 37 37  65 67 66  98 99 96
123 125 122  147 150 149  146 149 147  135 139 137  144 146 145  147 148 146
121 125 123  102 105 101  32 36 35  124 124 118  80 83 77  17 20 17
89 91 88  123 125 121  122 124 119  101 103 99  48 47 41  111 112 107
93 94 89  88 89 83  96 98 92  99 100 93  90 92 87  12 14 10
63 63 55  65 66 61  55 55 49  32 33 29  18 19 16  5 7 6
0 0 1  0 0 0  0 0 0  0 0 0  0 0 0  0 0 0
0 0 0  0 0 0
0 0 0  0 0 0  0 0 0  0 0 0  0 0 0  0 0 0
0 0 0  1 2 4  8 9 12  27 29 29  59 61 60  93 94 93
118 120 118  132 135 135  145 148 146  137 141 139  130 133 129  152 154 152
132 136 134  106 108 104  22 27 26  51 51 45  33 35 32  123 123 121
123 126 121  107 110 106  110 112 107  93 95 91  37 37 32  115 117 112
105 106 101  64 66 62  50 52 48  65 67 62  92 92 87  55 57 55
35 36 29  63 65 60  50 50 46  39 39 34  16 18 14  6 7 6
1 1 2  0 0 0  0 0 0  0 0 0  0 0 0  0 0 0
0 0 0  0 0 0
0 0 0  0 0 0  0 0 0  0 0 0  0 0 0  0 0 0
0 0 0  0 1 3  5 6 8  24 25 26  49 51 50  89 90 89
118 120 119  129 132 130  134 138 135  140 143 143  129 132 127  136 139 136
143 145 142  106 108 104  19 24 23  52 52 47  118 119 117  131 132 129
111 113 110  95 99 95  107 111 106  77 79 75  15 19 17  92 92 86
110 111 107  94 95 91  63 66 62  25 27 25  31 33 29  27 30 28
17 17 11  61 62 55  69 69 64  47 47 42  18 19 16  6 7 6
2 2 3  0 0 0  0 0 0  0 0 0  0 0 0  0 0 0
0 0 0  0 0 0
0 0 0  0 0 0  0 0 0  0 0 0  0 0 0  0 0 0
0 0 0  0 1 2  3 4 6  19 20 21  42 44 43  77 78 78
116 119 117  135 138 137  130 134 130  145 147 143  124 127 123  123 126 124
71 74 69  18 21 17  21 25 24  76 73 67  128 129 124  127 130 125
121 123 118  105 107 104  104 106 103  87 90 85  24 27 25  61 60 53
95 96 91  102 105 101  77 80 75  82 84 80  57 60 56  37 38 36
6 10 7  36 36 30  61 62 56  41 42 37  17 18 15  10 11 8
3 4 4  0 0 0  0 0 0  0 0 0  0 0 0  0 0 0
0 0 0  0 0 0
0 0 0  0 0 0  0 0 0  0 0 0  0 0 0  0 0 0
0 0 0  0 0 1  2 3 5  14 15 16  35 36 36  63 65 64
110 113 112  124 127 125  130 134 131  109 112 108  57 59 55  16 21 18
18 22 20  107 107 105  102 104 100  54 56 51  111 111 106  113 115 112
125 127 122  100 102 97  110 112 107  94 96 92  54 56 53  30 30 24
82 83 78  90 93 87  83 86 83  77 80 75  80 83 79  60 64 60
2 7 7  2 5 5  2 5 4  14 16 14  6 7 6  8 9 8
3 4 5  0 0 1  0 0 0  0 0 0  0 0 0  0 0 0
0 0 0  0 0 0
0 0 0  0 0 0  0 0 0  0 0 0  0 0 0  0 0 0
0 0 0  0 0 0  1 2 4  8 10 11  30 31 31  53 55 53
87 89 88  81 84 80  37 39 35  23 27 23  29 33 30  96 99 98
129 132 131  136 140 140  115 119 115  50 52 47  124 121 116  117 121 117
126 127 123  111 112 106  91 95 92  86 89 86  90 92 89  20 22 19
68 65 57  87 91 87  72 75 71  81 84 80  60 63 61  70 73 69
18 20 18  45 44 38  38 40 39  20 21 20  1 2 3  0 1 3
0 0 0  0 0 0  0 0 0  0 0 0  0 0 0  0 0 0
0 0 0  0 0 0
0 0 0  0 0 0  0 0 0  0 0 0  0 0 0  0 0 0
0 0 0  0 0 0  1 2 3  6 7 9  11 13 12  13 16 14
21 24 21  27 31 28  60 62 60  110 112 111  127 131 131  128 132 131
122 125 123  131 134 132  120 124 121  28 32 29  114 111 105  111 115 112
106 109 105  94 98 93  77 80 76  89 92 89  95 98 93  32 36 32
81 77 68  87 89 85  75 79 75  84 86 81  69 73 70  55 58 53
37 41 39  30 30 24  49 52 48  43 45 41  35 36 31  15 16 13
3 3 3  0 0 1  0 0 0  0 0 0  0 0 0  0 0 0
0 0 0  0 0 0
0 0 0  0 0 0  0 0 0  0 0 0  0 0 0  0 0 0
0 0 0  0 0 0  0 1 2  5 6 8  19 20 19  38 39 37
64 66 63  104 106 105  133 136 135  129 132 131  122 125 122  131 134 132
124 129 128  118 121 119  120 123 119  29 34 30  78 77 71  118 120 115
96 99 95  71 74 71  11 14 12  101 103 99  94 97 92  48 51 47
81 79 72  80 84 80  79 80 75  82 84 81  69 71 66  65 69 66
36 41 38  6 8 6  50 53 48  56 56 49  44 44 38  25 25 21
8 9 8  1 2 3  0 0 0  0 0 0  0 0 0  0 0 0
0 0 0  0 0 0
0 0 0  0 0 0  0 0 0  0 0 0  0 0 0  0 0 0
0 0 0  0 0 0  0 1 2  3 4 6  17 19 20  40 41 41
78 80 79  107 110 107  114 118 115  119 123 123  131 135 132  119 122 119
120 124 121  133 137 134  114 117 114  45 49 45  66 66 61  122 125 122
76 79 75  9 13 10  100 99 96  99 103 100  97 101 96  62 65 62
86 85 80  73 77 75  71 73 69  79 81 77  58 61 58  57 60 56
43 48 46  2 5 5  46 47 41  50 51 45  38 37 32  21 21 18
6 7 6  2 3 3  0 0 0  0 0 0  0 0 0  0 0 0
0 0 0  0 0 0
0 0 0  0 0 0  0 0 0  0 0 0  0 0 0  0 0 0
0 0 0  0 0 0  0 0 1  2 3 5  13 14 16  37 39 39
78 79 78  108 111 109  116 119 117  109 113 110  115 119 116  127 132 130
131 134 131  120 123 120  123 127 123  49 53 48  51 51 47  39 43 40
9 13 11  102 102 97  98 101 99  91 94 90  91 94 89  54 57 55
67 67 62  83 86 83  61 66 64  27 29 28  33 37 35  40 44 40
51 55 51  8 13 13  26 27 22  48 50 44  37 37 33  27 28 24
8 9 7  3 4 3  0 1 1  0 0 0  0 0 0  0 0 0
0 0 0  0 0 0
0 0 0  0 0 0  0 0 0  0 0 0  0 0 0  0 0 0
0 0 0  0 0 0  0 0 1  1 2 4  9 11 11  30 32 31
68 69 68  102 104 100  114 118 117  126 130 129  122 126 123  122 125 123
129 131 127  108 112 109  115 119 115  45 48 43  12 16 14  18 21 18
106 107 102  101 103 102  103 107 103  87 91 88  85 89 84  38 41 39
33 33 28  77 80 78  91 94 90  54 58 55  38 40 37  12 15 15
21 25 24  5 11 11  8 10 5  50 51 47  46 47 40  20 21 16
10 12 9  4 5 5  1 1 2  0 0 0  0 0 0  0 0 0
0 0 0  0 0 0
0 0 0  0 0 0  0 0 0  0 0 0  0 0 0  0 0 0
0 0 0  0 0 0  0 0 1  1 2 3  8 9 11  29 30 31
62 64 64  95 96 95  102 105 103  116 120 119  125 130 129  119 123 121
114 116 113  132 135 132  119 120 117  14 18 14  14 19 18  84 83 77
106 110 108  101 105 102  92 95 91  86 89 86  88 91 89  46 50 49
6 10 8  70 73 71  63 68 65  93 95 89  57 62 60  36 40 36
12 17 14  1 4 5  3 5 3  51 53 46  44 44 39  34 35 29
12 13 10  4 6 5  0 1 2  0 0 0  0 0 0  0 0 0
0 0 0  0 0 0
0 0 0  0 0 0  0 0 0  0 0 0  0 0 0  0 0 0
0 0 0  0 0 0  0 0 0  0 1 3  7 8 10  26 27 28
68 69 68  100 102 100  107 110 109  120 122 119  122 125 122  112 115 112
104 106 105  69 72 71  13 16 13  13 16 13  15 20 20  82 81 76
99 103 99  82 86 84  79 82 78  79 83 82  84 89 85  72 75 71
5 8 8  36 37 32  63 68 65  64 67 64  78 79 74  45 51 48
54 58 53  16 20 18  0 4 4  1 3 3  22 23 19  40 39 34
14 15 12  15 16 12  5 6 6  0 0 0  0 0 0  0 0 0
0 0 0  0 0 0
0 0 0  0 0 0  0 0 0  0 0 0  0 0 0  0 0 0
0 0 0  0 0 0  0 0 0  0 1 3  5 6 9  20 22 22
53 54 52  87 89 86  99 103 100  113 117 116  101 105 104  56 58 54
12 16 14  12 16 14  68 68 64  106 107 104  31 36 32  68 67 61
97 100 96  76 80 78  80 84 82  86 89 86  79 82 78  75 78 75
40 42 38  16 16 11  56 60 56  80 83 81  56 59 55  67 71 66
39 44 44  40 43 40  1 3 4  0 3 3  1 2 4  1 2 3
0 1 3  0 1 2  0 1 2  0 0 0  0 0 0  0 0 0
0 0 0  0 0 0
0 0 0  0 0 0  0 0 0  0 0 0  0 0 0  0 0 0
0 0 0  0 0 0  0 0 0  0 1 2  4 5 7  17 19 20
44 46 46  72 74 73  71 73 71  43 46 43  15 19 16  17 21 19
60 62 58  108 111 110  127 131 129  109 113 110  42 46 43  49 49 42
112 113 111  89 93 90  70 74 71  99 101 97  55 60 60  77 81 79
60 65 63  11 13 10  48 50 43  50 56 54  72 76 71  60 63 59
57 62 58  30 35 35  7 9 5  56 55 50  43 46 42  38 40 36
17 20 16  5 6 6  3 4 4  0 0 0  0 0 0  0 0 0
0 0 0  0 0 0
0 0 0  0 0 0  0 0 0  0 0 0  0 0 0  0 0 0
0 0 0  0 0 0  0 0 0  0 0 1  3 4 6  12 13 12
14 16 15  16 19 17  20 24 21  23 28 25  87 90 87  121 124 122
115 121 121  99 104 103  109 113 110  96 101 98  48 52 50  37 36 31
117 118 113  98 101 97  87 88 83  75 80 78  65 66 62  77 82 78
62 66 63  5 9 8  69 71 67  44 49 48  57 60 55  70 73 70
31 36 35  52 56 53  4 9 11  12 15 11  19 24 22  31 34 31
28 29 25  14 16 13  10 12 8  3 3 3  0 0 0  0 0 0
0 0 0  0 0 0
0 0 0  0 0 0  0 0 0  0 0 0  0 0 0  0 0 0
0 0 0  0 0 0  0 0 0  0 0 1  3 4 5  14 15 14
36 38 35  69 70 66  95 97 94  124 127 127  125 129 128  121 125 125
108 113 110  109 114 112  112 115 113  87 91 89  55 58 56  10 15 14
112 113 109  84 87 84  85 86 82  39 42 41  80 82 78  65 70 68
46 50 49  2 6 6  63 65 60  39 43 39  60 63 60  39 42 40
44 48 45  35 40 36  13 17 18  3 4 3  36 39 36  22 27 25
17 21 18  9 12 8  15 17 13  2 3 2  0 0 2  0 1 3
0 1 1  0 0 0
0 0 0  0 0 0  0 0 0  0 0 0  0 0 0  0 0 0
0 0 0  0 0 0  0 0 0  0 0 1  2 3 5  11 12 14
35 37 37  73 75 74  105 108 105  114 116 115  113 116 113  119 123 120
113 118 117  97 101 98  97 100 97  96 101 99  45 50 48  10 14 12
85 87 86  86 90 87  35 37 33  59 61 54  79 82 79  57 63 61
68 72 68  2 6 6  64 67 64  38 43 41  50 51 47  80 82 76
45 49 44  36 42 39  18 22 21  1 3 3  21 25 23  17 21 18
18 21 18  20 22 18  9 11 8  5 6 4  0 1 1  0 1 2
0 1 1  0 1 1
0 0 0  0 0 0  0 0 0  0 0 0  0 0 0  0 0 0
0 0 0  0 0 0  0 0 0  0 0 1  1 2 4  9 11 12
31 33 33  69 71 70  103 106 104  116 119 117  110 114 113  106 109 108
117 120 117  104 108 107  95 99 95  94 97 94  59 65 62  9 14 12
53 54 51  19 23 22  80 80 72  93 96 93  66 72 71  70 75 71
43 48 45  2 6 6  46 49 46  37 43 43  32 36 33  32 33 32
19 23 22  30 34 31  33 38 34  0 3 4  19 22 18  9 13 12
27 30 27  20 23 16  15 17 13  2 3 2  0 1 1  0 1 2
0 0 0  0 1 3
0 0 0  0 0 0  0 0 0  0 0 0  0 0 0  0 0 0
0 0 0  0 0 0  0 0 0  0 0 0  1 2 3  8 9 11
30 31 31  61 63 61  92 95 92  99 102 101  112 116 115  115 119 119
105 109 107  90 93 91  100 104 102  88 93 91  68 73 68  8 12 11
19 22 18  59 61 56  88 93 91  68 73 70  66 71 68  62 67 63
30 35 35  2 6 5  39 41 38  53 55 52  31 39 38  45 49 43
15 18 16  1 3 5  4 7 8  1 2 4  19 21 16  15 19 18
9 15 13  30 32 27  38 39 33  9 12 7  9 10 7  1 1 3
0 0 1  0 1 3
0 0 0  0 0 0  0 0 0  0 0 0  0 0 0  0 0 0
0 0 0  0 0 0  0 0 0  0 0 0  1 1 3  7 8 10
27 29 30  58 61 61  90 93 92  98 101 100  114 117 112  114 118 116
115 120 117  84 88 87  87 92 88  96 100 98  55 59 58  8 13 11
30 30 26  102 105 99  70 75 71  70 74 69  69 71 68  67 72 68
56 59 56  13 18 16  6 9 6  39 45 43  28 33 31  49 53 48
21 27 25  14 19 18  13 17 15  0 2 4  2 3 3  19 21 19
17 21 19  28 30 26  16 19 15  4 6 4  4 5 3  1 2 4
1 2 4  0 1 3
0 0 0  0 0 0  0 0 0  0 0 0  0 0 0  0 0 0
0 0 0  0 0 0  0 0 0  0 0 0  0 1 3  6 7 9
25 27 27  54 57 55  99 102 98  122 125 121  111 116 116  108 113 110
105 108 105  81 85 83  86 91 89  58 62 62  11 13 9  8 13 11
26 27 24  88 90 86  65 70 67  65 71 68  59 63 60  77 80 76
52 57 53  39 44 38  1 5 5  36 39 35  50 55 51  43 47 42
35 41 39  15 21 20  20 27 25  0 3 4  0 2 4  1 2 4
1 3 5  2 3 5  7 8 7  3 4 5  1 1 2  1 2 4
2 3 5  1 2 4
0 0 1  0 0 0  0 0 0  0 0 0  0 0 0  0 0 0
0 0 0  0 0 0  0 0 0  0 0 0  1 1 3  5 6 8
20 22 22  47 50 48  79 82 81  103 106 103  108 111 109  103 107 105
88 92 91  40 44 43  17 20 19  11 15 11  82 84 77  49 52 47
11 15 14  81 84 80  64 70 67  66 71 68  57 61 58  36 41 40
51 54 54  38 44 43  1 4 4  37 39 32  55 58 55  44 47 46
40 44 39  40 45 41  11 16 15  2 5 5  6 7 4  18 22 19
16 20 16  39 41 33  1 3 4  2 3 5  2 3 5  1 2 4
2 3 5  1 2 4
0 0 1  0 0 0  0 0 0  0 0 0  0 0 0  0 0 0
0 0 0  0 0 0  0 0 0  0 0 0  0 1 3  4 6 7
18 20 20  46 48 48  77 80 79  96 99 97  88 91 90  53 56 56
14 18 16  14 19 14  80 83 76  109 112 108  85 91 90  42 46 45
7 11 11  83 83 79  72 76 70  53 58 54  63 68 64  33 38 36
65 69 64  45 51 47  1 5 5  45 49 45  27 32 30  44 49 41
30 36 35  28 32 28  18 24 21  2 4 5  1 1 2  8 11 10
1 5 5  4 8 8  17 20 15  10 13 8  2 2 1  1 1 2
2 3 5  1 2 4
0 0 1  0 0 0  0 0 0  0 0 0  0 0 0  0 0 0
0 0 0  0 0 0  0 0 0  0 0 0  0 1 2  4 5 6
13 14 12  12 14 14  28 30 30  21 24 23  15 20 17  34 38 31
93 96 90  99 103 100  97 102 101  84 88 86  63 70 68  48 53 51
7 11 9  82 83 78  51 57 56  40 46 45  32 36 36  51 51 46
71 75 69  38 43 42  1 4 4  42 45 39  24 30 28  36 40 37
46 50 44  27 32 29  21 25 20  11 15 14  0 2 3  12 16 13
4 6 5  16 19 15  4 6 5  6 8 5  2 2 2  0 1 2
2 3 5  1 2 4
0 1 2  0 0 0  0 0 0  0 0 0  0 0 0  0 0 0
0 0 0  0 0 0  0 0 0  0 0 0  0 1 3  4 5 7
17 19 18  35 36 32  51 54 48  77 79 71  112 114 110  122 125 125
101 107 107  78 83 83  80 85 82  80 85 81  62 68 65  42 47 46
6 11 8  63 66 64  59 63 61  19 23 20  38 41 33  63 67 62
39 45 44  45 50 46  1 4 4  60 61 59  42 45 41  36 38 32
33 38 37  20 23 20  11 17 17  13 17 14  0 1 3  11 13 12
3 6 5  7 11 7  5 6 7  4 5 4  1 1 1  0 1 2
1 2 4  1 2 4
0 1 3  0 0 0  0 0 0  0 0 0  0 0 0  0 0 0
0 0 0  0 0 0  0 0 0  0 0 0  0 1 3  3 4 6
15 17 17  38 40 38  67 71 70  102 105 105  109 114 112  96 101 102
89 94 91  76 82 79  75 80 78  73 78 74  68 72 68  54 59 55
6 10 8  38 41 39  16 20 20  33 36 29  74 77 74  40 47 46
45 51 46  30 36 33  1 4 3  35 38 33  48 53 48  24 30 24
1 3 4  1 3 4  13 17 14  6 11 10  0 1 3  7 10 8
16 18 15  7 11 9  22 24 19  14 16 12  4 5 3  0 1 1
1 2 4  0 1 3
1 2 3  0 0 0  0 0 0  0 0 0  0 0 0  0 0 0
0 0 0  0 0 0  0 0 0  0 0 0  0 1 2  2 3 5
14 15 16  30 32 30  72 75 73  100 102 99  104 108 105  103 108 105
93 98 96  69 75 73  62 67 64  83 88 85  59 65 63  43 48 45
6 10 7  5 9 7  48 50 45  66 72 69  46 52 50  42 47 44
39 43 42  15 20 21  1 5 5  27 28 26  45 49 42  35 38 36
45 48 43  31 35 29  4 6 6  0 1 3  0 1 3  24 25 23
18 20 19  1 3 3  3 4 3  5 7 5  1 2 1  0 0 0
1 2 4  1 2 4
2 3 5  0 0 1  0 0 0  0 0 0  0 0 0  0 0 0
0 0 0  0 0 0  0 0 0  0 0 0  0 1 2  2 3 5
12 13 14  29 31 30  68 71 70  95 98 97  94 98 96  96 101 96
93 98 92  81 87 84  68 71 70  74 79 75  70 74 70  50 55 52
5 10 7  12 14 11  65 69 64  42 48 46  47 53 47  31 36 35
41 48 43  37 43 39  12 17 16  1 3 3  48 50 46  30 34 29
45 48 45  16 22 20  21 25 21  3 6 5  0 1 3  0 1 2
1 2 3  0 2 2  0 1 1  1 2 2  1 1 1  1 1 2
1 2 4  1 2 4
3 4 6  0 0 1  0 0 0  0 0 0  0 0 0  0 0 0
0 0 0  0 0 0  0 0 0  0 0 0  0 1 1  3 4 6
10 12 12  27 29 28  77 79 76  111 112 107  112 116 112  100 106 105
86 91 86  72 76 73  75 79 75  70 74 72  57 61 60  16 19 18
5 9 8  9 12 9  60 63 58  34 40 39  36 43 42  48 54 49
40 43 40  35 40 37  23 27 25  0 3 3  28 31 26  18 24 24
38 41 35  22 27 25  21 25 21  4 8 7  0 1 2  0 1 2
0 2 3  1 2 3  1 2 4  1 3 4  2 3 5  1 2 4
0 1 3  0 1 2
4 5 7  0 1 1  0 0 0  0 0 0  0 0 0  0 0 0
0 0 0  0 0 0  0 0 0  0 0 0  0 1 2  3 4 6
10 12 11  23 25 25  70 72 70  93 96 94  97 100 98  98 102 98
89 95 91  60 66 65  47 50 50  29 32 32  8 12 10  46 50 41
26 30 24  5 9 8  67 71 67  43 49 45  35 41 37  29 34 32
18 25 22  40 45 43  14 21 21  1 2 3  32 35 29  40 44 39
49 52 45  25 29 23  7 12 13  8 13 9  0 1 2  8 9 6
12 15 13  27 30 25  26 29 21  20 23 15  4 6 3  1 2 1
0 1 3  0 1 2
5 6 8  0 1 2  0 0 0  0 0 0  0 0 0  0 0 0
0 0 0  0 0 0  0 0 0  0 0 0  0 0 1  2 3 5
8 10 9  22 24 23  71 74 72  98 101 98  91 96 93  85 89 90
51 56 55  16 21 20  9 14 12  53 57 49  72 77 72  81 85 84
29 35 34  4 8 7  59 62 57  33 39 35  25 30 28  39 43 42
28 31 28  35 40 37  21 26 22  0 2 3  52 55 52  28 31 28
36 39 35  39 40 36  28 34 28  5 9 10  2 3 3  9 10 7
10 14 12  0 1 0  2 4 2  0 0 0  1 2 1  0 0 0
0 1 2  0 1 3
6 7 9  0 1 3  0 0 0  0 0 0  0 0 0  0 0 0
0 0 0  0 0 0  0 0 0  0 0 0  0 0 1  2 3 5
7 9 9  16 18 15  24 26 26  41 42 44  33 36 36  15 19 16
15 21 16  65 69 59  89 93 89  68 74 73  62 69 67  56 61 60
30 35 34  3 7 6  48 52 48  26 33 32  27 32 31  7 13 14
41 46 42  30 35 32  12 17 14  1 2 4  18 24 20  17 21 20
45 48 41  32 34 29  17 21 19  24 27 22  0 1 3  0 1 2
15 16 16  1 1 1  1 1 1  0 0 0  1 1 1  0 0 0
0 1 2  0 1 1
8 9 10  1 1 3  0 0 0  0 0 0  0 0 0  0 0 0
0 0 0  0 0 0  0 0 0  0 0 0  0 0 1  2 3 4
7 8 9  20 21 19  42 43 38  56 59 50  77 81 72  95 99 93
110 115 111  87 92 92  60 67 66  66 71 68  75 79 74  56 62 59
33 37 35  2 6 5  54 58 53  41 45 42  13 17 15  39 44 36
33 38 38  18 24 22  5 9 11  1 2 3  18 22 20  42 44 39
22 25 21  14 16 16  17 18 14  18 20 17  16 19 14  0 1 2
7 10 8  2 3 2  7 9 7  0 0 0  0 0 0  0 0 0
0 1 2  0 1 2
8 9 11  1 1 3  0 0 0  0 0 0  0 0 0  0 0 0
0 0 0  0 0 0  0 0 0  0 0 0  0 0 1  1 2 4
6 7 8  18 20 18  50 53 51  88 92 90  93 96 97  80 85 85
81 86 84  77 82 76  72 78 73  88 91 85  60 64 60  44 49 47
28 33 30  2 6 5  29 32 32  5 9 9  35 39 35  37 41 39
24 30 27  21 25 22  12 16 14  0 1 3  13 16 14  8 15 15
18 22 20  14 19 15  0 1 2  19 22 18  0 1 1  0 1 1
8 10 8  1 1 1  0 1 1  0 0 0  0 0 0  0 0 0
0 1 1  0 1 2
8 10 10  1 1 3  0 0 0  0 0 0  0 0 0  0 0 0
0 0 0  0 0 0  0 0 0  0 0 0  0 0 1  1 2 4
5 6 7  15 16 13  36 37 36  82 84 80  85 88 85  83 86 84
70 74 72  66 71 70  47 53 52  59 61 58  55 60 54  58 63 58
23 28 25  1 5 5  3 6 5  48 51 46  30 34 32  14 19 17
14 19 17  11 16 13  8 13 11  0 1 3  1 3 4  21 25 21
9 14 13  19 22 20  20 24 19  9 12 9  0 1 2  0 1 2
1 2 2  1 2 2  0 0 0  0 0 1  0 0 1  0 1 1
0 1 3  0 1 2
8 10 11  1 1 3  0 0 0  0 0 0  0 0 0  0 0 0
0 0 0  0 0 0  0 0 0  0 0 0  0 0 0  0 1 3
4 5 6  11 13 10  29 31 30  63 64 63  69 72 71  53 57 56
62 66 63  50 54 52  52 56 52  47 50 47  42 45 42  36 40 37
16 19 18  2 3 4  10 12 10  28 32 30  17 21 18  10 14 12
6 11 11  5 9 8  5 8 8  0 1 2  0 1 1  7 9 9
9 13 12  3 6 5  3 5 5  4 7 6  3 5 4  0 0 0
0 0 0  0 0 0  0 0 0  0 0 1  0 0 2  0 1 2
0 0 1  0 0 1
7 8 10  1 1 3  0 0 0  0 0 0  0 0 0  0 0 0
0 0 0  0 0 0  0 0 0  0 0 0  0 0 0  0 1 3
3 4 5  18 19 18  24 26 23  43 45 42  56 59 55  45 49 46
33 37 38  28 31 31  28 31 30  22 25 24  28 31 28  11 14 14
1 3 4  1 2 3  5 6 7  9 12 12  5 8 10  4 7 7
4 6 6  3 4 5  1 3 4  0 0 1  1 1 1  2 3 4
1 3 3  2 3 3  1 2 1  2 3 4  1 1 2  0 0 0
2 3 3  2 2 2  2 2 2  0 0 0  0 0 0  0 0 0
0 0 0  0 0 0
7 8 10  0 1 2  0 0 0  0 0 0  0 0 0  0 0 0
0 0 0  0 0 0  0 0 0  0 0 0  0 0 0  0 1 2
1 2 4  7 8 9  21 23 21  19 20 19  25 27 27  21 24 23
13 16 17  14 18 18  13 15 15  6 8 9  3 4 6  0 2 3
3 4 5  0 1 2  1 1 3  4 5 6  2 3 4  1 2 3
0 0 1  2 2 3  0 1 1  0 0 0  1 1 1  0 1 1
1 1 2  0 0 1  0 1 1  0 0 1  0 0 0  0 0 0
0 0 0  0 0 0  0 0 0  0 0 0  0 0 0  0 0 0
0 0 0  0 0 0
5 6 7  0 1 2  0 0 0  0 0 0  0 0 0  0 0 0
0 0 0  0 0 0  0 0 0  0 0 0  0 0 0  0 0 1
0 1 3  1 2 4  5 7 8  9 11 12  8 9 11  6 7 9
3 4 5  2 3 4  0 1 1  0 1 2  1 2 4  1 3 4
0 1 3  0 0 0  0 0 0  0 0 1  0 0 1  0 0 0
0 0 1  0 0 1  0 0 0  0 0 0  0 0 0  0 0 0
0 0 0  0 0 0  0 0 0  0 0 0  0 0 0  0 0 0
0 0 0  0 0 0  0 0 0  0 0 0  0 0 0  0 0 0
0 0 0  0 0 0
3 4 6  0 1 1  0 0 0  0 0 0  0 0 0  0 0 0
0 0 0  0 0 0  0 0 0  0 0 0  0 0 0  0 0 0
0 0 0  0 0 1  0 0 1  0 0 0  0 0 1  0 0 0
0 0 0  0 0 0  0 0 1  0 1 2  0 0 1  0 0 0
0 0 0  0 0 0  0 0 0  0 0 0  0 0 0  0 0 0
0 0 0  0 0 0  0 0 0  0 0 0  0 0 0  0 0 0
0 0 0  0 0 0  0 0 0  0 0 0  0 0 0  0 0 0
0 0 0  0 0 0  0 0 0  0 0 0  0 0 0  0 0 0
0 0 0  0 0 0
